<?xml version="1.0" encoding="UTF-8"?>
<svg version="1.1" xmlns="http://www.w3.org/2000/svg" width="256" height="256">
<path d="M0 0 C0.80152496 0.00054382 1.60304993 0.00108765 2.42886353 0.00164795 C14.22386895 0.03850596 25.17062371 0.62127905 36.4375 4.375 C37.87499597 4.81511732 39.3124961 5.25522107 40.75 5.6953125 C54.95939377 10.22992264 67.77272439 17.03994379 79.4375 26.375 C79.99324707 26.81859863 80.54899414 27.26219727 81.12158203 27.71923828 C89.23001447 34.25158448 96.18153715 40.99322454 102.4375 49.375 C103.11167969 50.22320312 103.78585938 51.07140625 104.48046875 51.9453125 C113.69038736 63.88079696 119.92747263 78.04803335 124.4375 92.375 C124.75509277 93.36717529 124.75509277 93.36717529 125.07910156 94.37939453 C131.5199609 115.60564968 131.16349701 143.28549726 124.4375 164.375 C124.19612305 165.15294922 123.95474609 165.93089844 123.70605469 166.73242188 C118.24820866 183.88172926 109.88711464 198.5571426 98.4375 212.375 C97.76976562 213.19613281 97.10203125 214.01726562 96.4140625 214.86328125 C91.37040365 220.82303323 85.60633078 225.61667323 79.4375 230.375 C78.58414063 231.055625 77.73078125 231.73625 76.8515625 232.4375 C64.90155457 241.62429288 50.76398573 247.86512402 36.4375 252.375 C35.7760498 252.58672852 35.11459961 252.79845703 34.43310547 253.01660156 C13.20685032 259.4574609 -14.47299726 259.10099701 -35.5625 252.375 C-36.34044922 252.13362305 -37.11839844 251.89224609 -37.91992188 251.64355469 C-55.050431 246.19169129 -69.78091237 237.84753535 -83.5625 226.375 C-84.45710938 225.63378906 -85.35171875 224.89257812 -86.2734375 224.12890625 C-108.80500243 204.68243252 -125.18860808 174.0696104 -127.74468994 144.24951172 C-128.03757757 139.04222676 -128.04270462 133.83880889 -128 128.625 C-127.99695862 127.83540894 -127.99391724 127.04581787 -127.99078369 126.2322998 C-127.92249991 114.23438358 -127.2845308 102.86908744 -123.5625 91.375 C-123.35351074 90.70243164 -123.14452148 90.02986328 -122.92919922 89.33691406 C-112.1073248 55.3392052 -88.23408591 28.71753609 -56.875 12.4375 C-47.82573093 7.90566636 -38.40486937 4.70865594 -28.5625 2.375 C-27.78849854 2.18808594 -27.01449707 2.00117187 -26.21704102 1.80859375 C-17.53972299 -0.0360672 -8.82763042 -0.02246014 0 0 Z " fill="#010000" transform="translate(127.5625,-0.375)"/>
<path d="M0 0 C0.80152496 0.00054382 1.60304993 0.00108765 2.42886353 0.00164795 C14.22386895 0.03850596 25.17062371 0.62127905 36.4375 4.375 C37.87499597 4.81511732 39.3124961 5.25522107 40.75 5.6953125 C54.95939377 10.22992264 67.77272439 17.03994379 79.4375 26.375 C79.99324707 26.81859863 80.54899414 27.26219727 81.12158203 27.71923828 C89.23001447 34.25158448 96.18153715 40.99322454 102.4375 49.375 C103.11167969 50.22320312 103.78585938 51.07140625 104.48046875 51.9453125 C113.69038736 63.88079696 119.92747263 78.04803335 124.4375 92.375 C124.75509277 93.36717529 124.75509277 93.36717529 125.07910156 94.37939453 C131.5199609 115.60564968 131.16349701 143.28549726 124.4375 164.375 C124.19612305 165.15294922 123.95474609 165.93089844 123.70605469 166.73242188 C118.24820866 183.88172926 109.88711464 198.5571426 98.4375 212.375 C97.76976562 213.19613281 97.10203125 214.01726562 96.4140625 214.86328125 C91.37040365 220.82303323 85.60633078 225.61667323 79.4375 230.375 C78.58414063 231.055625 77.73078125 231.73625 76.8515625 232.4375 C64.90155457 241.62429288 50.76398573 247.86512402 36.4375 252.375 C35.7760498 252.58672852 35.11459961 252.79845703 34.43310547 253.01660156 C13.20685032 259.4574609 -14.47299726 259.10099701 -35.5625 252.375 C-36.34044922 252.13362305 -37.11839844 251.89224609 -37.91992188 251.64355469 C-55.050431 246.19169129 -69.78091237 237.84753535 -83.5625 226.375 C-84.45710938 225.63378906 -85.35171875 224.89257812 -86.2734375 224.12890625 C-108.80500243 204.68243252 -125.18860808 174.0696104 -127.74468994 144.24951172 C-128.03757757 139.04222676 -128.04270462 133.83880889 -128 128.625 C-127.99695862 127.83540894 -127.99391724 127.04581787 -127.99078369 126.2322998 C-127.92249991 114.23438358 -127.2845308 102.86908744 -123.5625 91.375 C-123.35351074 90.70243164 -123.14452148 90.02986328 -122.92919922 89.33691406 C-112.1073248 55.3392052 -88.23408591 28.71753609 -56.875 12.4375 C-47.82573093 7.90566636 -38.40486937 4.70865594 -28.5625 2.375 C-27.78849854 2.18808594 -27.01449707 2.00117187 -26.21704102 1.80859375 C-17.53972299 -0.0360672 -8.82763042 -0.02246014 0 0 Z M-24.5625 11.375 C-25.69945313 11.59671875 -26.83640625 11.8184375 -28.0078125 12.046875 C-57.08973725 18.70493985 -84.15729932 38.41472676 -100.12646484 63.52099609 C-107.73979868 75.97111344 -113.67798726 89.03211896 -116.5625 103.375 C-116.78550781 104.45265625 -117.00851563 105.5303125 -117.23828125 106.640625 C-122.47155887 136.68747067 -116.18341383 169.55753873 -98.9934082 194.93408203 C-81.10398511 220.16122451 -55.07374571 239.06003629 -24.5625 245.375 C-23.48226562 245.59929687 -22.40203125 245.82359375 -21.2890625 246.0546875 C8.7663705 251.26619964 41.61180613 245.00149057 66.99658203 227.8059082 C95.04625964 207.91492964 112.434384 179.72056844 118.75 146.125 C122.79823949 115.21824851 115.98251046 83.46872625 97.30566406 58.23974609 C76.95539423 31.76880123 48.36447336 14.07844703 15.10546875 9.65234375 C1.87365801 8.6518554 -11.53522236 8.68831924 -24.5625 11.375 Z " fill="#C61800" transform="translate(127.5625,-0.375)"/>
<path d="M0 0 C1.7337085 -0.0165564 1.7337085 -0.0165564 3.50244141 -0.03344727 C22.87744943 0.2885023 39.98160433 9.29287014 53.8125 22.4375 C68.26181272 37.4028596 74.13477982 55.17784334 73.97753906 75.60546875 C73.84130577 82.10000037 73.38772033 88.32958958 71.6875 94.625 C71.49671875 95.35203125 71.3059375 96.0790625 71.109375 96.828125 C70.66628444 98.43591075 70.1829251 100.03256218 69.6875 101.625 C71.6675 97.335 73.6475 93.045 75.6875 88.625 C76.3475 88.625 77.0075 88.625 77.6875 88.625 C78.85742187 90.20703125 78.85742187 90.20703125 80.15625 92.4375 C80.64061523 93.25879395 81.12498047 94.08008789 81.62402344 94.92626953 C82.1399707 95.81685059 82.65591797 96.70743164 83.1875 97.625 C84.26419851 99.45656849 85.34234608 101.28728584 86.421875 103.1171875 C86.96521484 104.03983398 87.50855469 104.96248047 88.06835938 105.91308594 C90.86273503 110.59341234 93.78955755 115.19037725 96.74023438 119.7734375 C99.6875 124.41111829 99.6875 124.41111829 99.6875 126.625 C75.2675 126.625 50.8475 126.625 25.6875 126.625 C28.13527447 124.17722553 30.00024319 122.71323474 32.875 120.9375 C46.3054398 112.00560557 53.89329842 99.05688554 57.06640625 83.44140625 C59.5896066 67.93721288 55.82313615 53.95796488 47.6875 40.625 C38.37258199 27.97468464 24.86274896 19.51897218 9.3125 16.90234375 C-8.0464219 15.06829099 -23.48510714 18.77998599 -37.3125 29.625 C-47.85623311 38.74769754 -56.09227148 51.24806111 -57.21484375 65.49609375 C-57.24707031 66.19863281 -57.27929688 66.90117188 -57.3125 67.625 C-57.37566406 68.48222656 -57.43882813 69.33945313 -57.50390625 70.22265625 C-58.16018507 85.9521777 -52.75150517 101.06031557 -42.7734375 113.16015625 C-38.94998285 116.98967987 -34.60386434 119.8883049 -30.0703125 122.8125 C-27.3125 124.625 -27.3125 124.625 -25.3125 126.625 C-50.0625 126.625 -74.8125 126.625 -100.3125 126.625 C-93.56484312 114.25429572 -93.56484312 114.25429572 -90.76953125 109.9140625 C-90.17076172 108.97949219 -89.57199219 108.04492188 -88.95507812 107.08203125 C-88.35115234 106.14746094 -87.74722656 105.21289062 -87.125 104.25 C-85.90181288 102.34669523 -84.67913861 100.44306076 -83.45703125 98.5390625 C-82.92440674 97.7135791 -82.39178223 96.8880957 -81.84301758 96.03759766 C-80.75880223 94.32851869 -79.72966785 92.58392434 -78.7409668 90.81787109 C-78.03387573 89.7323999 -78.03387573 89.7323999 -77.3125 88.625 C-76.6525 88.625 -75.9925 88.625 -75.3125 88.625 C-74.68021484 90.01525391 -74.68021484 90.01525391 -74.03515625 91.43359375 C-73.48730469 92.63113281 -72.93945312 93.82867187 -72.375 95.0625 C-71.82972656 96.25746094 -71.28445312 97.45242187 -70.72265625 98.68359375 C-69.59503144 101.45311326 -69.59503144 101.45311326 -68.3125 102.625 C-68.66183594 101.635 -69.01117188 100.645 -69.37109375 99.625 C-73.98167891 86.35169556 -73.98167891 86.35169556 -74.3125 79.625 C-74.36277344 78.77292969 -74.41304687 77.92085938 -74.46484375 77.04296875 C-75.14825067 56.62277003 -68.10688064 37.94752183 -54.18139648 22.97119141 C-39.02747491 7.41359452 -21.69843695 0.16188587 0 0 Z " fill="#8C1100" transform="translate(128.3125,53.375)"/>
<path d="M0 0 C0.5878125 0.928125 0.5878125 0.928125 1.1875 1.875 C3.39530188 4.46345738 4.71614263 5.1243047 8 6 C10.69193789 6.15010806 13.29938583 6.09154624 16 6 C16.309375 7.0828125 16.309375 7.0828125 16.625 8.1875 C18.42469884 11.86870218 20.69729204 13.62205027 24 16 C24.6909375 16.12117188 25.381875 16.24234375 26.09375 16.3671875 C26.7228125 16.57601562 27.351875 16.78484375 28 17 C28.9765625 18.9609375 28.9765625 18.9609375 29.625 21.375 C30.48536201 24.48242515 31.16748687 26.25123031 33 29 C35.05003955 30.19232613 35.05003955 30.19232613 37 31 C36.505 31.495 36.505 31.495 36 32 C35.67448217 36.63384203 35.60648849 41.54076315 37 46 C37.66 46.33 38.32 46.66 39 47 C38.525625 47.474375 38.05125 47.94875 37.5625 48.4375 C35.36237202 52.04570989 34.8370671 55.78702077 35 60 C35.66 60.99 36.32 61.98 37 63 C36.236875 63.20625 35.47375 63.4125 34.6875 63.625 C31.10359698 65.4586248 30.44959833 67.30352427 29 71 C28.30092586 73.73572585 28.30092586 73.73572585 28 76 C24.535 76.99 24.535 76.99 21 78 C21 78.66 21 79.32 21 80 C20.38125 80.45375 19.7625 80.9075 19.125 81.375 C16.86557722 83.10279389 16.07249699 84.40813228 15 87 C13.96875 86.938125 12.9375 86.87625 11.875 86.8125 C7.7064061 87.01420616 5.50627823 87.79838344 2 90 C1.34 90.99 0.68 91.98 0 93 C-0.99 92.01 -0.99 92.01 -2 91 C-4.79716058 90.75624166 -4.79716058 90.75624166 -7.9375 90.875 C-8.99839844 90.89304687 -10.05929688 90.91109375 -11.15234375 90.9296875 C-12.56193359 90.96449219 -12.56193359 90.96449219 -14 91 C-17 91 -17 91 -18.8671875 89.55859375 C-21.96608452 87.29401516 -25.02139317 87.2049537 -28.7578125 86.72265625 C-31 86 -31 86 -32.08984375 84.1015625 C-32.54037109 83.06128906 -32.54037109 83.06128906 -33 82 C-34.5948016 80.51072725 -34.5948016 80.51072725 -36.4375 79.3125 C-37.33275391 78.68794922 -37.33275391 78.68794922 -38.24609375 78.05078125 C-40.12883876 76.83689224 -40.12883876 76.83689224 -43 76 C-44.0625 73.3125 -44.0625 73.3125 -45 70 C-45.37125 68.88625 -45.7425 67.7725 -46.125 66.625 C-46.41375 65.75875 -46.7025 64.8925 -47 64 C-48.65 63.67 -50.3 63.34 -52 63 C-51.67 62.34 -51.34 61.68 -51 61 C-50.39985931 55.22941644 -50.89640604 51.04334018 -54 46 C-53.34 45.34 -52.68 44.68 -52 44 C-50.51909507 40.14964717 -50.86917468 36.0555848 -51 32 C-51.33 31.34 -51.66 30.68 -52 30 C-51.21625 29.938125 -50.4325 29.87625 -49.625 29.8125 C-46.83583723 29.27982552 -46.83583723 29.27982552 -45.8125 26.875 C-45.19962698 24.70637239 -44.67241674 22.51327595 -44.1875 20.3125 C-43 17 -43 17 -40.6875 15.8125 C-39.3571875 15.4103125 -39.3571875 15.4103125 -38 15 C-34.37784106 12.55773168 -34.37784106 12.55773168 -32.16015625 8.94140625 C-31 7 -31 7 -28.7578125 6.20703125 C-27.45457031 6.01173828 -27.45457031 6.01173828 -26.125 5.8125 C-25.26132813 5.67457031 -24.39765625 5.53664063 -23.5078125 5.39453125 C-22.68023437 5.26433594 -21.85265625 5.13414063 -21 5 C-18.79494764 4.71844091 -18.79494764 4.71844091 -17 4 C-16.67 3.01 -16.34 2.02 -16 1 C-15.34 1.33 -14.68 1.66 -14 2 C-12.0027458 2.12199138 -10.00094019 2.17547512 -8 2.1875 C-6.9275 2.20167969 -5.855 2.21585937 -4.75 2.23046875 C-1.85546904 2.28585786 -1.85546904 2.28585786 0 0 Z " fill="#010000" transform="translate(136,81)"/>
<path d="M0 0 C0.69786621 0.16628906 1.39573242 0.33257812 2.11474609 0.50390625 C24.03703407 5.8885028 42.94994188 17.31575517 59 33 C59.80179688 33.73992188 60.60359375 34.47984375 61.4296875 35.2421875 C67.67611854 41.14279537 72.3853483 47.81130405 77 55 C77.63035156 55.98097656 78.26070312 56.96195313 78.91015625 57.97265625 C94.67894679 83.72257135 100.15768554 118.12367557 93.5 147.6875 C84.92387393 181.63983486 64.05008585 210.45326207 34 228.4453125 C26.41082815 232.78392346 18.57888932 236.10972157 10.3125 238.9375 C9.49442871 239.22012695 8.67635742 239.50275391 7.83349609 239.79394531 C-4.32084028 243.71004895 -16.86798846 244.44513132 -29.5625 244.4375 C-30.25765717 244.43790283 -30.95281433 244.43830566 -31.66903687 244.4387207 C-60.82492513 244.34200824 -89.54332861 233.6525925 -110.66796875 213.2265625 C-112.96565682 210.96014626 -112.96565682 210.96014626 -115.5390625 209.01171875 C-137.07768685 191.40474805 -148.71780208 160.24961322 -151.77734375 133.44091797 C-153.95579684 109.55914827 -149.44691106 86.45263774 -139 65 C-138.5153125 64.00097656 -138.030625 63.00195312 -137.53125 61.97265625 C-122.50055743 32.87156537 -95.1812956 11.86000888 -64.4375 1.625 C-43.33050175 -4.16283097 -21.3349043 -5.20688512 0 0 Z M-53 4 C-54.13695313 4.22171875 -55.27390625 4.4434375 -56.4453125 4.671875 C-85.52723725 11.32993985 -112.59479932 31.03972676 -128.56396484 56.14599609 C-136.17729868 68.59611344 -142.11548726 81.65711896 -145 96 C-145.22300781 97.07765625 -145.44601563 98.1553125 -145.67578125 99.265625 C-150.90905887 129.31247067 -144.62091383 162.18253873 -127.4309082 187.55908203 C-109.54148511 212.78622451 -83.51124571 231.68503629 -53 238 C-51.91976562 238.22429687 -50.83953125 238.44859375 -49.7265625 238.6796875 C-19.6711295 243.89119964 13.17430613 237.62649057 38.55908203 220.4309082 C66.60875964 200.53992964 83.996884 172.34556844 90.3125 138.75 C94.36073949 107.84324851 87.54501046 76.09372625 68.86816406 50.86474609 C48.51789423 24.39380123 19.92697336 6.70344703 -13.33203125 2.27734375 C-26.56384199 1.2768554 -39.97272236 1.31331924 -53 4 Z " fill="#8B1000" transform="translate(156,7)"/>
<path d="M0 0 C2.57421875 0.40625 2.57421875 0.40625 5.26171875 2.40625 C5.69484375 3.06625 6.12796875 3.72625 6.57421875 4.40625 C7.23421875 3.74625 7.89421875 3.08625 8.57421875 2.40625 C13.52396009 2.691812 17.37044543 3.7666714 21.57421875 6.40625 C22.94921875 8.59375 22.94921875 8.59375 23.57421875 10.40625 C24.84265625 10.220625 24.84265625 10.220625 26.13671875 10.03125 C30.92240348 10.5533247 33.56300703 12.7129406 36.57421875 16.40625 C37.51171875 19.78125 37.51171875 19.78125 37.57421875 22.40625 C38.44046875 22.4990625 38.44046875 22.4990625 39.32421875 22.59375 C43.40022714 24.06564192 45.25057132 27.92077885 47.57421875 31.40625 C47.69921875 33.96875 47.69921875 33.96875 47.57421875 36.40625 C47.57421875 37.06625 47.57421875 37.72625 47.57421875 38.40625 C48.21359375 38.90125 48.85296875 39.39625 49.51171875 39.90625 C52.56807492 43.61092414 52.8015851 47.6770299 52.57421875 52.40625 C51.58203125 54.71875 51.58203125 54.71875 50.57421875 56.40625 C51.23421875 57.39625 51.89421875 58.38625 52.57421875 59.40625 C52.8421339 63.45932528 52.69949379 67.73314369 50.38671875 71.171875 C49.01171875 72.53125 49.01171875 72.53125 46.57421875 74.40625 C46.90421875 74.73625 47.23421875 75.06625 47.57421875 75.40625 C48.31441521 80.43958595 46.26626011 83.32973022 43.57421875 87.40625 C40.57421875 89.40625 40.57421875 89.40625 37.57421875 89.40625 C37.55359375 90.2725 37.53296875 91.13875 37.51171875 92.03125 C36.22321719 96.66985562 33.71028689 99.01257457 29.57421875 101.40625 C27.57458847 101.44470443 25.57370242 101.45169281 23.57421875 101.40625 C23.12046875 102.169375 22.66671875 102.9325 22.19921875 103.71875 C20.12493981 107.14928824 18.2844121 107.75965145 14.57421875 108.98046875 C11.98722259 109.53121598 10.07480283 109.2152625 7.57421875 108.40625 C6.91421875 108.40625 6.25421875 108.40625 5.57421875 108.40625 C5.15011719 108.89222656 4.72601563 109.37820312 4.2890625 109.87890625 C1.32524663 112.51866025 -2.0207015 111.8626969 -5.81640625 111.77734375 C-8.42578125 111.40625 -8.42578125 111.40625 -11.11328125 109.40625 C-11.54640625 108.74625 -11.97953125 108.08625 -12.42578125 107.40625 C-13.08578125 108.06625 -13.74578125 108.72625 -14.42578125 109.40625 C-19.5396317 109.15474916 -23.31211772 108.6729828 -27.42578125 105.40625 C-28.73828125 103.21875 -28.73828125 103.21875 -29.42578125 101.40625 C-30.94171875 101.6228125 -30.94171875 101.6228125 -32.48828125 101.84375 C-37.35370344 101.30314753 -38.90656426 99.81853741 -42.11328125 96.296875 C-43.42578125 94.40625 -43.42578125 94.40625 -43.86328125 91.46875 C-43.71890625 90.788125 -43.57453125 90.1075 -43.42578125 89.40625 C-44.14765625 89.385625 -44.86953125 89.365 -45.61328125 89.34375 C-49.23892393 88.13520244 -50.42832666 86.4527247 -52.484375 83.3203125 C-53.83503255 80.5741623 -53.84395692 78.40317565 -53.42578125 75.40625 C-52.93078125 74.41625 -52.93078125 74.41625 -52.42578125 73.40625 C-53.04453125 73.179375 -53.66328125 72.9525 -54.30078125 72.71875 C-57.18636996 70.93647462 -57.57250601 69.67713842 -58.42578125 66.40625 C-58.83028721 62.09151978 -58.91285864 59.13686608 -56.42578125 55.40625 C-57.08578125 54.74625 -57.74578125 54.08625 -58.42578125 53.40625 C-58.73853247 48.6367939 -58.9155019 44.6387751 -56.42578125 40.40625 C-54.30078125 39.09375 -54.30078125 39.09375 -52.42578125 38.40625 C-52.75578125 37.74625 -53.08578125 37.08625 -53.42578125 36.40625 C-53.9911262 32.35461118 -53.44017766 29.94836335 -51.23828125 26.59375 C-49.33506277 24.12500374 -48.6623534 23.48510738 -45.61328125 22.46875 C-44.89140625 22.448125 -44.16953125 22.4275 -43.42578125 22.40625 C-43.49925781 21.66117188 -43.57273437 20.91609375 -43.6484375 20.1484375 C-43.36609442 16.67115959 -42.44212482 15.81159365 -39.86328125 13.53125 C-36.17333865 10.4858963 -36.17333865 10.4858963 -33.3359375 10.18359375 C-31.42578125 10.46875 -31.42578125 10.46875 -28.42578125 11.40625 C-28.33296875 10.2615625 -28.33296875 10.2615625 -28.23828125 9.09375 C-27.42578125 6.40625 -27.42578125 6.40625 -25.36328125 4.65625 C-21.56188831 3.03863598 -18.56179634 2.60966058 -14.42578125 2.40625 C-13.76578125 3.06625 -13.10578125 3.72625 -12.42578125 4.40625 C-11.99265625 3.74625 -11.55953125 3.08625 -11.11328125 2.40625 C-7.41105048 -0.34889848 -4.51814233 -0.14477359 0 0 Z M4.57421875 9.40625 C3.91421875 10.06625 3.25421875 10.72625 2.57421875 11.40625 C-0.140625 11.6015625 -0.140625 11.6015625 -3.36328125 11.53125 C-4.42417969 11.51320313 -5.48507813 11.49515625 -6.578125 11.4765625 C-7.98771484 11.44175781 -7.98771484 11.44175781 -9.42578125 11.40625 C-10.41578125 11.40625 -11.40578125 11.40625 -12.42578125 11.40625 C-12.42578125 12.06625 -12.42578125 12.72625 -12.42578125 13.40625 C-13.40160156 13.56480469 -14.37742188 13.72335938 -15.3828125 13.88671875 C-16.65511719 14.12003906 -17.92742187 14.35335937 -19.23828125 14.59375 C-20.50285156 14.81417969 -21.76742187 15.03460938 -23.0703125 15.26171875 C-26.56057661 16.09271203 -26.56057661 16.09271203 -28.22265625 18.87890625 C-28.6196875 19.71292969 -29.01671875 20.54695313 -29.42578125 21.40625 C-32.29116867 24.051223 -34.52388915 25.82819191 -38.42578125 26.40625 C-38.71453125 27.458125 -39.00328125 28.51 -39.30078125 29.59375 C-39.67203125 30.851875 -40.04328125 32.11 -40.42578125 33.40625 C-40.69390625 34.355 -40.96203125 35.30375 -41.23828125 36.28125 C-42.42578125 38.40625 -42.42578125 38.40625 -45.05078125 39.21875 C-46.22640625 39.3115625 -46.22640625 39.3115625 -47.42578125 39.40625 C-47.09578125 40.06625 -46.76578125 40.72625 -46.42578125 41.40625 C-46.17800287 46.44441044 -46.30867161 49.77507266 -48.42578125 54.40625 C-48.65665873 57.31945825 -48.65665873 57.31945825 -47.4375 59.3046875 C-46.26937004 61.7311505 -46.18905501 63.35513239 -46.23828125 66.03125 C-46.24472656 66.80726563 -46.25117187 67.58328125 -46.2578125 68.3828125 C-46.42578125 70.40625 -46.42578125 70.40625 -47.42578125 72.40625 C-45.77578125 72.73625 -44.12578125 73.06625 -42.42578125 73.40625 C-41.40632748 76.46461132 -40.41479721 79.45293217 -39.67578125 82.59375 C-38.00520885 86.35253791 -36.11001753 86.74473168 -32.42578125 88.40625 C-27.83394452 92.58992347 -27.83394452 92.58992347 -26.42578125 95.40625 C-24.27481066 95.94857088 -24.27481066 95.94857088 -21.73828125 96.28125 C-17.00826226 97.12274549 -14.17355695 98.44747971 -10.42578125 101.40625 C-10.09578125 101.07625 -9.76578125 100.74625 -9.42578125 100.40625 C-7.47047361 100.28076011 -5.51007646 100.23049637 -3.55078125 100.21875 C-1.94589844 100.19748047 -1.94589844 100.19748047 -0.30859375 100.17578125 C2.57421875 100.40625 2.57421875 100.40625 5.57421875 102.40625 C6.06921875 100.92125 6.06921875 100.92125 6.57421875 99.40625 C11.40059297 96.227906 14.99869537 96.11786086 20.57421875 96.40625 C20.84234375 95.6225 21.11046875 94.83875 21.38671875 94.03125 C22.57421875 91.40625 22.57421875 91.40625 25.57421875 89.40625 C25.57421875 88.74625 25.57421875 88.08625 25.57421875 87.40625 C27.21390625 87.1896875 27.21390625 87.1896875 28.88671875 86.96875 C30.86223603 86.51797169 30.86223603 86.51797169 32.57421875 85.40625 C33.74669035 83.16476017 34.36661339 81.05065572 34.96875 78.59765625 C35.57421875 76.40625 35.57421875 76.40625 37.57421875 73.40625 C39.69921875 72.21875 39.69921875 72.21875 41.57421875 71.40625 C40.91421875 70.74625 40.25421875 70.08625 39.57421875 69.40625 C39.35718099 64.14566819 40.41394801 59.66574535 43.57421875 55.40625 C42.91421875 55.40625 42.25421875 55.40625 41.57421875 55.40625 C40.32840624 50.57872654 39.2765023 44.00168291 41.57421875 39.40625 C40.81109375 39.2 40.04796875 38.99375 39.26171875 38.78125 C35.67781573 36.9476252 35.02381708 35.10272573 33.57421875 31.40625 C33.49171875 30.519375 33.40921875 29.6325 33.32421875 28.71875 C33.07671875 27.955625 32.82921875 27.1925 32.57421875 26.40625 C30.27823682 25.32323965 27.93944433 24.32828709 25.57421875 23.40625 C22.73139048 21.02442091 21.03295821 18.80997541 19.57421875 15.40625 C18.02734375 15.4990625 18.02734375 15.4990625 16.44921875 15.59375 C12.28062485 15.39204384 10.08049698 14.60786656 6.57421875 12.40625 C5.91421875 11.41625 5.25421875 10.42625 4.57421875 9.40625 Z " fill="#C51700" transform="translate(131.42578125,71.59375)"/>
<path d="M0 0 C2.125 0.375 2.125 0.375 4 1 C3.67 1.66 3.34 2.32 3 3 C4.32 2.67 5.64 2.34 7 2 C6.67 3.32 6.34 4.64 6 6 C6.99 6.33 7.98 6.66 9 7 C6.69 7.66 4.38 8.32 2 9 C1.67 8.01 1.34 7.02 1 6 C-0.32 6 -1.64 6 -3 6 C-2.42655063 3.13275314 -2.1385485 2.1385485 0 0 Z " fill="#870F00" transform="translate(106,76)"/>
<path d="M0 0 C-1.61010527 4.07376031 -4.53822271 6.76507069 -7.625 9.75 C-8.140625 10.25660156 -8.65625 10.76320313 -9.1875 11.28515625 C-10.45383339 12.52803902 -11.7263144 13.76465276 -13 15 C-13.66 14.67 -14.32 14.34 -15 14 C-13.58474822 12.41540185 -12.1677358 10.83237609 -10.75 9.25 C-9.96109375 8.36828125 -9.1721875 7.4865625 -8.359375 6.578125 C-2.33939394 0 -2.33939394 0 0 0 Z " fill="#810E00" transform="translate(44,31)"/>
<path d="M0 0 C2.64 0 5.28 0 8 0 C6.515 1.98 6.515 1.98 5 4 C6.65 4 8.3 4 10 4 C9.67 4.66 9.34 5.32 9 6 C6.03 6 3.06 6 0 6 C-0.33 5.34 -0.66 4.68 -1 4 C0.65 4 2.3 4 4 4 C4 3.34 4 2.68 4 2 C2.68 1.67 1.36 1.34 0 1 C0 0.67 0 0.34 0 0 Z " fill="#570600" transform="translate(124,174)"/>
<path d="M0 0 C2.72426311 2.35277269 3.8141763 4.62496331 5 8 C4.34 8 3.68 8 3 8 C3 7.34 3 6.68 3 6 C2.34 6 1.68 6 1 6 C0.67 7.32 0.34 8.64 0 10 C-1.32 8.02 -2.64 6.04 -4 4 C-3.67 3.34 -3.34 2.68 -3 2 C-1.515 2.99 -1.515 2.99 0 4 C0 2.68 0 1.36 0 0 Z " fill="#550700" transform="translate(171,98)"/>
<path d="M0 0 C0.33 0.66 0.66 1.32 1 2 C0.67 2.66 0.34 3.32 0 4 C1.65 3.34 3.3 2.68 5 2 C3.8141763 5.37503669 2.72426311 7.64722731 0 10 C0 8.68 0 7.36 0 6 C-0.99 6 -1.98 6 -3 6 C-1.125 1.125 -1.125 1.125 0 0 Z " fill="#4A0500" transform="translate(85,98)"/>
<path d="M0 0 C0.33 0.66 0.66 1.32 1 2 C0.67 2.99 0.34 3.98 0 5 C0.66 5.33 1.32 5.66 2 6 C1.01 6.99 0.02 7.98 -1 9 C-1.99 8.67 -2.98 8.34 -4 8 C-3.34 7.67 -2.68 7.34 -2 7 C-1.67 6.01 -1.34 5.02 -1 4 C-2.65 4.66 -4.3 5.32 -6 6 C-2.25 1.125 -2.25 1.125 0 0 Z " fill="#3A0300" transform="translate(161,161)"/>
<path d="M0 0 C3.26460973 1.80412643 4.88929795 2.83394693 7 6 C4.525 5.01 4.525 5.01 2 4 C2.7763932 7.0745356 2.7763932 7.0745356 5 9 C3.125 8.6875 3.125 8.6875 1 8 C0.34 7.01 -0.32 6.02 -1 5 C-0.34 5 0.32 5 1 5 C0.67 3.35 0.34 1.7 0 0 Z " fill="#3B0400" transform="translate(95,161)"/>
<path d="M0 0 C0.99 0.33 1.98 0.66 3 1 C0.525 5.455 0.525 5.455 -2 10 C-3 8 -3 8 -2.44140625 6.0546875 C-2.15136719 5.33539063 -1.86132812 4.61609375 -1.5625 3.875 C-1.27503906 3.15054688 -0.98757812 2.42609375 -0.69140625 1.6796875 C-0.46324219 1.12539062 -0.23507813 0.57109375 0 0 Z " fill="#160100" transform="translate(199,148)"/>
<path d="M0 0 C0.33 0.99 0.66 1.98 1 3 C2.32 3 3.64 3 5 3 C5 4.65 5 6.3 5 8 C4.01 8.495 4.01 8.495 3 9 C3 7.68 3 6.36 3 5 C2.01 5 1.02 5 0 5 C0 3.35 0 1.7 0 0 Z " fill="#460500" transform="translate(175,132)"/>
</svg>
