/* XPM */
static char *ebe2b7e2581f4dfdf61c36a408d9de90lu7jZ266qcys87B4[] = {
/* columns rows colors chars-per-pixel */
"16 16 98 2 ",
"   c None",
".  c black",
"X  c #040000",
"o  c #070000",
"O  c #0B0000",
"+  c #0E0000",
"@  c #130100",
"#  c #140000",
"$  c #150000",
"%  c #150100",
"&  c #160100",
"*  c #170100",
"=  c #1F0100",
"-  c #210100",
";  c #240100",
":  c #2C0100",
">  c #2D0200",
",  c #300200",
"<  c #320200",
"1  c #330200",
"2  c #340300",
"3  c #370300",
"4  c #3A0300",
"5  c #410400",
"6  c #440400",
"7  c #450400",
"8  c #460400",
"9  c #470400",
"0  c #480500",
"q  c #4A0500",
"w  c #540600",
"e  c #550600",
"r  c #570700",
"t  c #580500",
"y  c #580700",
"u  c #5F0600",
"i  c #5B0800",
"p  c #650900",
"a  c #6B0900",
"s  c #6C0900",
"d  c #6D0900",
"f  c #6E0900",
"g  c #6F0900",
"h  c #6F0C00",
"j  c #710900",
"k  c #750900",
"l  c #750D00",
"z  c #7C0B00",
"x  c #7E0B00",
"c  c #7F0B00",
"v  c #780C00",
"b  c #790D00",
"n  c #7A0E00",
"m  c #820D00",
"M  c #830D00",
"N  c #820F00",
"B  c #850D00",
"V  c #860D00",
"C  c #870D00",
"Z  c #870E00",
"A  c #860F00",
"S  c #880D00",
"D  c #880E00",
"F  c #8A0E00",
"G  c #8B0E00",
"H  c #8C0D00",
"J  c #8D0F00",
"K  c #8F0E00",
"L  c #8E0F00",
"P  c #8F0F00",
"I  c #900F00",
"U  c #910F00",
"Y  c #920F00",
"T  c #930F00",
"R  c #960F00",
"E  c #831000",
"W  c #861000",
"Q  c #871000",
"!  c #881100",
"~  c #891100",
"^  c #8A1000",
"/  c #8B1100",
"(  c #8C1100",
")  c #8F1000",
"_  c #8D1200",
"`  c #911000",
"'  c #931000",
"]  c #941000",
"[  c #971100",
"{  c #981000",
"}  c #991000",
"|  c #9A1000",
" . c #9A1100",
".. c #9C1000",
"X. c #9D1200",
"o. c #A01200",
"O. c #A61300",
"+. c #A81300",
/* pixels */
"          P Z M M G I           ",
"      P a , + o o + , s I       ",
"    G 7 o . . . . . . o 7 P     ",
"  P 7 . . . * 2 5 , @ . . 7 I   ",
"  a o . o 7 n ~ ~ W l 4 . o s   ",
"P , . . 7 Z X.{ { R { M 2 . , I ",
"Z + . * n [ P * . > P ' h O * G ",
"M o . > ~ +.- . . . , O.M = o Z ",
"M o . , ~ X.. . . . * { Z ; o Z ",
"G + O p W +.u . . . j o.E i * G ",
"I , 0 ( ( ( X.x y G { ( ( ~ 0 ' ",
"  s 7 y y e e x x k e e y y n   ",
"  I 7 . . . . . . . . . . 7 [   ",
"    P 7 o . . . . . . o 7 I     ",
"      I s , * o o * , s [       ",
"          I G Z Z G I           "
};
