/* XPM */
static char *dcbde96885ba478eccda16027bbfbcbcQBLBd4KzDBz8wubT[] = {
/* columns rows colors chars-per-pixel */
"32 32 191 2 ",
"   c None",
".  c black",
"X  c #040000",
"o  c #070000",
"O  c #080000",
"+  c #0B0000",
"@  c #100000",
"#  c #130100",
"$  c #150000",
"%  c #150100",
"&  c #170100",
"*  c #190100",
"=  c #1A0100",
"-  c #1B0100",
";  c #1E0100",
":  c #1F0100",
">  c #240100",
",  c #250100",
"<  c #270100",
"1  c #2A0100",
"2  c #2B0200",
"3  c #2C0100",
"4  c #2C0200",
"5  c #2D0200",
"6  c #2E0200",
"7  c #310200",
"8  c #330200",
"9  c #350200",
"0  c #360300",
"q  c #370300",
"w  c #380300",
"e  c #390300",
"r  c #3A0300",
"t  c #3B0300",
"y  c #3C0300",
"u  c #470300",
"i  c #400400",
"p  c #410400",
"a  c #420400",
"s  c #430400",
"d  c #440400",
"f  c #450400",
"g  c #490300",
"h  c #490500",
"j  c #4C0400",
"k  c #4C0500",
"l  c #4D0500",
"z  c #4F0400",
"x  c #510600",
"c  c #520600",
"v  c #540500",
"b  c #560500",
"n  c #550600",
"m  c #560600",
"M  c #570700",
"N  c #590700",
"B  c #5B0800",
"V  c #5D0800",
"C  c #5E0800",
"Z  c #650700",
"A  c #670700",
"S  c #630900",
"D  c #640900",
"F  c #650900",
"G  c #670900",
"H  c #650A00",
"J  c #670A00",
"K  c #6B0A00",
"L  c #6B0B00",
"P  c #6F0800",
"I  c #6C0A00",
"U  c #6D0A00",
"Y  c #6E0A00",
"T  c #6F0A00",
"R  c #6E0B00",
"E  c #6F0B00",
"W  c #700B00",
"Q  c #750A00",
"!  c #740B00",
"~  c #710C00",
"^  c #720C00",
"/  c #740C00",
"(  c #750C00",
")  c #760C00",
"_  c #770C00",
"`  c #760D00",
"'  c #770D00",
"]  c #7B0B00",
"[  c #790C00",
"{  c #780D00",
"}  c #790D00",
"|  c #7B0C00",
" . c #7B0D00",
".. c #7A0E00",
"X. c #7B0E00",
"o. c #7C0E00",
"O. c #7D0E00",
"+. c #7E0E00",
"@. c #810C00",
"#. c #810D00",
"$. c #820C00",
"%. c #830C00",
"&. c #800F00",
"*. c #810F00",
"=. c #820E00",
"-. c #820F00",
";. c #830F00",
":. c #840C00",
">. c #860C00",
",. c #840E00",
"<. c #850E00",
"1. c #840F00",
"2. c #860E00",
"3. c #870E00",
"4. c #8A0D00",
"5. c #890E00",
"6. c #880F00",
"7. c #890F00",
"8. c #8A0E00",
"9. c #8A0F00",
"0. c #8C0D00",
"q. c #8D0E00",
"w. c #8C0F00",
"e. c #8D0F00",
"r. c #8E0F00",
"t. c #900E00",
"y. c #910E00",
"u. c #910F00",
"i. c #920E00",
"p. c #970F00",
"a. c #841000",
"s. c #871000",
"d. c #881000",
"f. c #881100",
"g. c #8A1100",
"h. c #8B1100",
"j. c #8C1100",
"k. c #8D1200",
"l. c #8E1200",
"z. c #8F1200",
"x. c #961000",
"c. c #971000",
"v. c #991000",
"b. c #9B1000",
"n. c #9D1100",
"m. c #9F1100",
"M. c #9D1200",
"N. c #9E1200",
"B. c #9F1200",
"V. c #A01100",
"C. c #A21100",
"Z. c #A11200",
"A. c #A21200",
"S. c #A31200",
"D. c #A41200",
"F. c #A51300",
"G. c #A61200",
"H. c #A71200",
"J. c #A61300",
"K. c #A71300",
"L. c #A81200",
"P. c #A91200",
"I. c #A81300",
"U. c #A91300",
"Y. c #AA1300",
"T. c #AB1300",
"R. c #AC1300",
"E. c #AD1300",
"W. c #AC1400",
"Q. c #AD1400",
"!. c #AE1400",
"~. c #AF1400",
"^. c #B01400",
"/. c #B21400",
"(. c #B41500",
"). c #B71500",
"_. c #B91500",
"`. c #BA1600",
"'. c #BB1600",
"]. c #BC1600",
"[. c #BE1600",
"{. c #BF1600",
"}. c #C21700",
"|. c #C41700",
" X c #C71800",
".X c #C81800",
"XX c #C91800",
"oX c #CD1900",
"OX c #CE1900",
"+X c #CF1900",
"@X c #D11A00",
/* pixels */
"                      S.I.I.H.I.I.I.I.I.H.                      ",
"                  H.S.7.I m a w w a m I 7.S.I.                  ",
"              H.M./ a & X . . . . . . X & a / M.I.              ",
"            H.=.a + . . . . . . . . . . . . + a 1.I.            ",
"          S.I ; . . . . . . . . . . . . . . . . ; I H.          ",
"        S.D @ . . . . . . . . . . . . . . . . . . @ D H.        ",
"      H.I @ . . . . . . X * q l c h 3 @ . . . . . . @ I I.      ",
"    H.=.; . . . . . X 2 D =.k.k.k.k.h.+.N * . . . . . ; 1.I.    ",
"    M.a . . . . . X c s.k.k.1.| +.| h.k.k.+.w . . . . . a S.    ",
"  H.! + . . . . X V k.k.| 7.v./.XXS.i.| =.k.h.a . . . . + / I.  ",
"  S.a . . . . . l k.k.| /.].H.7.v.i.I.'.I.| k.s.3 . . . . a H.  ",
"S.7.& . . . . ; s.k.I '.XXm 3 + + @ q w.OXi.+.k.^ . . . . & w.H.",
"I.I X . . . . N k.=.H.'.m . . . . . . @ I (.7.h.k.q . . . X I E.",
"H.m . . . . . +.k.K }.=.. . . . . . . . + p.(./ k.V . . . . m W.",
"H.a . . . . & k.h.S. X& . . . . . . . . . g @X=.k.| . . . . d W.",
"I.w . . . . 3 k.s.I.].+ . . . . . . . . . , OX] k.=.. . . . w W.",
"I.w . . . . 3 k.s.S.H.+ . . . . . . . . . , ].! k.=.. . . . w W.",
"H.a . . . . , k.h.x.I.& . . . . . . . . . u /.=.k./ @ . . . d W.",
"I.m . . . * / +.k.I OX1.. . . . . . . . + I.].| k.K K . . . N W.",
"I.I X . . D k.| k.1.].|.l . . . . . . + A OXx.h.k.=.k.d . X I W.",
"H.7.& . y k.k.k.k.k./ (.M.l 2 . . + 8 1.S.i.=.k.h.k.k.=.& & w.I.",
"  S.a + +.k.k.k.k.k.k.=.S.XX].=.=.w.XX].v.=.k.k.k.k.k.k.S a H.  ",
"  I./ w ^ ^ ^ ^ ^ ^ ^ ^ B 1.W./.H.S.I.A D ^ ^ ^ ^ ^ ^ ^ I | W.  ",
"    M.a + + + + + + + + + . * , 8 & & X + + + + + + + + d S.    ",
"    I.1.; . . . . . . . . . . . . . . . . . . . . . . ; 1.E.    ",
"      I.I @ . . . . . . . . . . . . . . . . . . . . @ W W.      ",
"        H.D @ . . . . . . . . . . . . . . . . . . @ D I.        ",
"          H.I ; . . . . . . . . . . . . . . . . ; W I.          ",
"            I.1.a + . . . . . . . . . . . . + a 1.W.            ",
"              I.S./ a & X . . . . . . X & a / S.E.              ",
"                  I.H.w.I m d w w d m I w.H.E.                  ",
"                      H.E.W.W.W.W.W.W.W.I.                      "
};
