/* XPM */
static char *_7e4117938184fe1e376c47ede51b226Mdy9sJ60EBbJ9Ics[] = {
/* columns rows colors chars-per-pixel */
"64 64 143 2 ",
"   c None",
".  c #000000",
"X  c #0C0000",
"o  c #120000",
"O  c #1D0100",
"+  c #250100",
"@  c #2B0200",
"#  c #350300",
"$  c #3B0300",
"%  c #440400",
"&  c #4C0500",
"*  c #520600",
"=  c #5A0700",
"-  c #5D0800",
";  c #650700",
":  c #6A0700",
">  c #640900",
",  c #6B0A00",
"<  c #730C00",
"1  c #7B0D00",
"2  c #820E00",
"3  c #8B0D00",
"4  c #940F00",
"5  c #851000",
"6  c #841000",
"7  c #861000",
"8  c #871000",
"9  c #861000",
"0  c #881100",
"q  c #891100",
"w  c #8A1100",
"e  c #8B1100",
"r  c #8C1100",
"t  c #8D1100",
"y  c #8E1100",
"u  c #8F1100",
"i  c #8D1200",
"p  c #8E1200",
"a  c #8F1200",
"s  c #8E1200",
"d  c #901100",
"f  c #911100",
"g  c #921100",
"h  c #931100",
"j  c #911200",
"k  c #921200",
"l  c #931200",
"z  c #941100",
"x  c #961100",
"c  c #971100",
"v  c #941200",
"b  c #951200",
"n  c #961200",
"m  c #971200",
"M  c #941100",
"N  c #981000",
"B  c #9A1000",
"V  c #981200",
"C  c #991200",
"Z  c #9A1200",
"A  c #9B1200",
"S  c #9C1000",
"D  c #9D1100",
"F  c #9E1000",
"G  c #9C1200",
"H  c #9E1200",
"J  c #9F1200",
"K  c #9F1300",
"L  c #9B1200",
"P  c #A01100",
"I  c #A11100",
"U  c #A21100",
"Y  c #A11200",
"T  c #A41200",
"R  c #A51200",
"E  c #A41300",
"W  c #A61200",
"Q  c #A71200",
"!  c #A61300",
"~  c #A71300",
"^  c #A41300",
"/  c #A81200",
"(  c #A91200",
")  c #A91300",
"_  c #AA1300",
"`  c #AB1300",
"'  c #AC1300",
"]  c #AD1300",
"[  c #AE1300",
"{  c #AB1400",
"}  c #AC1400",
"|  c #AF1400",
" . c #AD1300",
".. c #B01400",
"X. c #B11400",
"o. c #B11500",
"O. c #B21400",
"+. c #B31400",
"@. c #B21500",
"#. c #B31500",
"$. c #B41400",
"%. c #B41500",
"&. c #B51500",
"*. c #B61500",
"=. c #B71500",
"-. c #B31400",
";. c #B81500",
":. c #B91500",
">. c #B81600",
",. c #B91600",
"<. c #BA1600",
"1. c #BB1600",
"2. c #BC1600",
"3. c #BD1600",
"4. c #BE1600",
"5. c #BF1600",
"6. c #BF1700",
"7. c #BC1600",
"8. c #C01700",
"9. c #C11700",
"0. c #C21700",
"q. c #C31700",
"w. c #C41700",
"e. c #C51700",
"r. c #C21700",
"t. c #C51800",
"y. c #C61800",
"u. c #C71800",
"i. c #C71800",
"p. c #C81800",
"a. c #C91800",
"s. c #CA1800",
"d. c #CB1900",
"f. c #CD1900",
"g. c #CE1900",
"h. c #CF1900",
"j. c #CB1900",
"k. c #D01900",
"l. c #D01A00",
"z. c #D11A00",
"x. c #D21A00",
"c. c #D31A00",
"v. c #D21A00",
/* pixels */
"                                                  E | <.8.y.d.g.g.d.y.8.<.| E                                                   ",
"                                            ..8.w.*./ J V x d d d d x V U { <.y.8...                                            ",
"                                      / 8.8./ V t 5 < , = * % % % % * = , < 5 t V | 8.8.[                                       ",
"                                  [ w...V t 1 - $ O X . . . . . . . . . . X O $ - 1 t J *.y...                                  ",
"                              / w...x 5 > # o . . . . . . . . . . . . . . . . . . o # > 5 x *.w.[                               ",
"                            2.<.x 5 - + . . . . . . . . . . . . . . . . . . . . . . . . + - 5 V 2.2.                            ",
"                        E w.E e , @ . . . . . . . . . . . . . . . . . . . . . . . . . . . . @ , t / y./                         ",
"                      ..2.x 1 % X . . . . . . . . . . . . . . . . . . . . . . . . . . . . . . X % 1 V 8...                      ",
"                    *.<.d , + . . . . . . . . . . . . . . . . . . . . . . . . . . . . . . . . . . + , d 2.<.                    ",
"                  <...t > o . . . . . . . . . . . . . . . . . . . . . . . . . . . . . . . . . . . . o > d <.<.                  ",
"                *...t = X . . . . . . . . . . . . . . . . . . . . . . . . . . . . . . . . . . . . . . X = t <.<.                ",
"              ..<.t = X . . . . . . . . . . . . . . . . . . . . . . . . . . . . . . . . . . . . . . . . X = d 2...              ",
"            E 2.d > X . . . . . . . . . . . . . . . . . . . . . . . . . . . . . . . . . . . . . . . . . . X > x w./             ",
"            w.x , o . . . . . . . . . . . . . . . . X + % = > , , , > * # o . . . . . . . . . . . . . . . . o , J y.            ",
"          2.E 1 + . . . . . . . . . . . . . . . O * < e t t t t t d t t t 1 > # X . . . . . . . . . . . . . . + 1 { 2.          ",
"        / <.e % . . . . . . . . . . . . . . O - 5 t t t t t t t t t t t t t t t < $ . . . . . . . . . . . . . . % t 2.[         ",
"        w.x , X . . . . . . . . . . . . . % 1 t t d t t t t t t t t t t t t d t t e > O . . . . . . . . . . . . X , J y.        ",
"      [ ..5 @ . . . . . . . . . . . . o - t d t d d t e 1 > - = * = > , 5 t t t t t t 1 # . . . . . . . . . . . . @ 5 *...      ",
"      w.d - . . . . . . . . . . . . o , t t t d t 2 > & 1 = 3 8.w...* 1 ; * < t t t t t 2 # . . . . . . . . . . . . - V y.      ",
"    / ..5 + . . . . . . . . . . . X > t t t t e > # U *...y.c.c.c.c.d.2.[ *., % 1 t t t t 2 # . . . . . . . . . . . + 5 <.|     ",
"    8.V > . . . . . . . . . . . . = t t t t 2 * 3 2 8.E J y...g.g.y.*...V <./ 4 , , t t t t 1 + . . . . . . . . . . . > J 8.    ",
"    8.e # . . . . . . . . . . . $ e t t t 1 * <.c.c.d...*.1 + # $ @ & U <.2.c.c.g.2 > t t t t , X . . . . . . . . . . # t y.    ",
"  ../ 1 o . . . . . . . . . . o 1 t t t 5 $ ..c.c.g.; % + . . . . . . o # & <.c.c.g.> , t t t t % . . . . . . . . . . o 1 ..*.  ",
"  8.x - . . . . . . . . . . . * t t t e & : 2.c.g.2 o . . . . . . . . . . . * 2.c.c.3 % 1 t t t 1 o . . . . . . . . . . - J 8.  ",
"  w.t $ . . . . . . . . . . o 1 t t t , 4 2.c./ < o . . . . . . . . . . . . . % 4 d.d.*.* e t t t % . . . . . . . . . . $ d d.  ",
"E *.5 O . . . . . . . . . . % t t t e , *.V *.< . . . . . . . . . . . . . . . . + *.E J N , t t t < . . . . . . . . . . O 5 2./ ",
"| / < X . . . . . . . . . . , t t t , 4 2.E | + . . . . . . . . . . . . . . . . . 1 U *.<.% t t t e + . . . . . . . . . X < ....",
"<.J , . . . . . . . . . . o 1 t t t % 1 c.8.; . . . . . . . . . . . . . . . . . . + E g...$ 1 t t t % . . . . . . . . . . , E <.",
"8.x = . . . . . . . . . . + e t t 5 < g.c.4 . . . . . . . . . . . . . . . . . . . . % d.c./ > t t t > . . . . . . . . . . = J 8.",
"y.d * . . . . . . . . . . $ t t t 1 J c.c.V . . . . . . . . . . . . . . . . . . . . & g.c.d.- t t t , . . . . . . . . . . * V d.",
"d.t % . . . . . . . . . . & t t t , / c.c.3 . . . . . . . . . . . . . . . . . . . . @ d.c.c.- t t t < X . . . . . . . . . % x g.",
"g.t % . . . . . . . . . . * t t t > 2 c.y.& . . . . . . . . . . . . . . . . . . . . o U c.<.$ t t t 1 o . . . . . . . . . % x g.",
"g.t % . . . . . . . . . . * t t t > 1 g.2.% . . . . . . . . . . . . . . . . . . . . o V g...# t t t 1 X . . . . . . . . . % x g.",
"d.t % . . . . . . . . . . & t t t , E [ [ 2 . . . . . . . . . . . . . . . . . . . . @ <.*.*.- t t t < X . . . . . . . . . % V g.",
"y.d * . . . . . . . . . . $ t t t 1 J E 4 4 . . . . . . . . . . . . . . . . . . . . % / 4 2.> t t t , . . . . . . . . . . * V d.",
"8.x = . . . . . . . . . O @ e t t e 1 2.y.4 . . . . . . . . . . . . . . . . . . . . % 8.8./ , t t t > @ . . . . . . . . . = J 8.",
"<.J , . . . . . . . . X > - 1 t t t * 2 g.2.> . . . . . . . . . . . . . . . . . . O U g.[ % 2 t t t & 1 @ . . . . . . . . , E <.",
"| / < X . . . . . . . % t 2 > t t t < 4 c.c...+ . . . . . . . . . . . . . . . . . 1 c.c.2.& t t t 5 > t , X . . . . . . X < ..*.",
"E <.5 O . . . . . . o 1 t t > t t t e , g.c.c., . . . . . . . . . . . . . . . . + <.c.c.V < t t t < 5 t t & . . . . . . O 5 8.[ ",
"  y.t $ . . . . . . - t t t 5 1 t t t < J c.c.E ; X . . . . . . . . . . . . . # 3 d.c.8.- t t t t < t t t 1 O . . . . . $ d d.  ",
"  8.x - . . . . . # 5 t t d t 2 t t t t = 1 2.8.*.1 X . . . . . . . . . . . % ....g.4 * 2 t t t 2 e t d d t > . . . . . - J 8.  ",
"  ..{ 1 o . . . X < t t t t d t t t d d e & | U 3 *.- @ O . . . . . . X @ # ..V 4 *.; < t t t t e t d d d d e # . . . o 1 ..*.  ",
"    8.e # . . . & t t t t d d d t t t t d 5 > ....g.d.g...< O @ @ + % V y.g.c.8.*.3 < t t t t t t t t t d t t < o . . # t y.    ",
"    8.V > . . + 2 t t t t d d d t t t t d t 5 > 4 3 c.c.c.g./ ..| *...c.c.c.[ 4 1 1 t t t t t t t t t t d t t t * . . > U 8.    ",
"    [ *.5 + . > t t t t t t t t t t t t t t t e , $ [ g.c.g.g.[ 3 8.d.c.c.w.< * 5 t t t t t t t t t t t t t t t 2 + + 5 2...    ",
"      y.x - X % & & & & & & & & & & & & & & & & & $ O * 3 ; V *.*...- 3 < @ @ & & & & & & & & & & & & & & & & & & @ - V d.      ",
"      ....5 @ . . . . . . . . . . . . . . . . . . . . . . . o @ @ + . . . . . . . . . . . . . . . . . . . . . . . @ 5 <.*.      ",
"        w.V , X . . . . . . . . . . . . . . . . . . . . . . . . . . . . . . . . . . . . . . . . . . . . . . . . X , J y.        ",
"        [ 2.e % . . . . . . . . . . . . . . . . . . . . . . . . . . . . . . . . . . . . . . . . . . . . . . . . % t 8...        ",
"          2.E 1 + . . . . . . . . . . . . . . . . . . . . . . . . . . . . . . . . . . . . . . . . . . . . . . + 2 | 2.          ",
"            y.V , o . . . . . . . . . . . . . . . . . . . . . . . . . . . . . . . . . . . . . . . . . . . . o , J d.            ",
"            / 8.d > X . . . . . . . . . . . . . . . . . . . . . . . . . . . . . . . . . . . . . . . . . . X > x y.|             ",
"              ..2.t = X . . . . . . . . . . . . . . . . . . . . . . . . . . . . . . . . . . . . . . . . X = d 8.*.              ",
"                <.<.t = X . . . . . . . . . . . . . . . . . . . . . . . . . . . . . . . . . . . . . . X = d 2.<.                ",
"                  <.<.t > o . . . . . . . . . . . . . . . . . . . . . . . . . . . . . . . . . . . . o > d 2.2.                  ",
"                    <.2.d , + . . . . . . . . . . . . . . . . . . . . . . . . . . . . . . . . . . + , x 8.<.                    ",
"                      ..w.V 1 % X . . . . . . . . . . . . . . . . . . . . . . . . . . . . . . X % 2 J y.*.                      ",
"                        / y./ t , @ . . . . . . . . . . . . . . . . . . . . . . . . . . . . @ , t | d.|                         ",
"                            2.2.V 5 - + . . . . . . . . . . . . . . . . . . . . . . . . + - 5 J 8.2.                            ",
"                              [ y.*.x 5 > # o . . . . . . . . . . . . . . . . . . o # > 5 V <.y...                              ",
"                                  ..y.<.J t 1 - $ O X . . . . . . . . . . X O $ - 1 t U 2.d.*.                                  ",
"                                      | 8.y...J t 5 < , = * % % % % * = , < 5 d J ..y.8...                                      ",
"                                            *.8.d.2...E J V x d d x V J E ..2.d.8.*.                                            ",
"                                                  / ..<.8.d.g.g.g.g.d.8.<.*.[                                                   "
};
