/* XPM */
static char * \\SERWEREK3\Robert Documents\desktop 19012021\!!!!!!NOWE POSEGRRR\OMEGA\images\omegacoin16_xpm[] = {
"16 16 72 1",
" 	c None",
".	c #B30000",
"+	c #A50000",
"@	c #9C0000",
"#	c #A40000",
"$	c #B20000",
"%	c #B40000",
"&	c #880000",
"*	c #530000",
"=	c #280000",
"-	c #190000",
";	c #AC0000",
">	c #650000",
",	c #010000",
"'	c #000000",
")	c #0C0000",
"!	c #140000",
"~	c #450000",
"{	c #5F0000",
"]	c #460000",
"^	c #150000",
"/	c #2A0000",
"(	c #730000",
"_	c #920000",
":	c #930000",
"<	c #750000",
"[	c #3F0000",
"}	c #130000",
"|	c #860000",
"1	c #A30000",
"2	c #940000",
"3	c #170000",
"4	c #430000",
"5	c #870000",
"6	c #A00000",
"7	c #060000",
"8	c #9F0000",
"9	c #470000",
"0	c #5E0000",
"a	c #980000",
"b	c #8C0000",
"c	c #050000",
"d	c #040000",
"e	c #890000",
"f	c #9A0000",
"g	c #600000",
"h	c #030000",
"i	c #810000",
"j	c #7D0000",
"k	c #630000",
"l	c #320000",
"m	c #8B0000",
"n	c #AB0000",
"o	c #3E0000",
"p	c #3B0000",
"q	c #AA0000",
"r	c #8A0000",
"s	c #7E0000",
"t	c #350000",
"u	c #550000",
"v	c #6E0000",
"w	c #8D0000",
"x	c #900000",
"y	c #9E0000",
"z	c #830000",
"A	c #820000",
"B	c #700000",
"C	c #480000",
"D	c #4E0000",
"E	c #6F0000",
"F	c #500000",
"G	c #490000",
"     .+@@#$     ",
"   %&*=--=*&%   ",
"  ;>-,',,',->;  ",
" %>)'!~{{]^,)>% ",
" &-'/(&_:&<[}-& ",
"$*,!(:#||12<3,*$",
"+='456]774859'=#",
"@-,0abc''defg,-@",
"@-hg_ic''dj:kd-@",
"#=ljmnoddpqrst=#",
"$uvwwxyzA8xwwBu$",
" eCCC]DEvF]CCGe ",
" %>)''',,''')>% ",
"  ;>-,'''',->;  ",
"   %&*=--=*&%   ",
"     $#@@#$     "};
