/* XPM */
static char *_517161368531[] = {
/* columns rows colors chars-per-pixel */
"64 64 211 2 ",
"   c #1E1F14",
".  c #231E19",
"X  c #221D17",
"o  c #15240D",
"O  c #1A2414",
"+  c #152813",
"@  c #1D261A",
"#  c #1A281A",
"$  c #162612",
"%  c #0E290C",
"&  c #21241D",
"*  c #1E2125",
"=  c #1F252D",
"-  c #262626",
";  c #282727",
":  c #272729",
">  c #2A262B",
",  c #27282A",
"<  c #282A2C",
"1  c #232B34",
"2  c #2B2D36",
"3  c #2D2E38",
"4  c #312534",
"5  c #362538",
"6  c #39243C",
"7  c #312838",
"8  c #2A323C",
"9  c #283033",
"0  c #392944",
"q  c #3C2A49",
"w  c #3A2942",
"e  c #253142",
"r  c #2A3544",
"t  c #2D3B45",
"y  c #333447",
"u  c #2A3D55",
"i  c #3B3B59",
"p  c #5A1D5B",
"a  c #412344",
"s  c #422549",
"d  c #492B5B",
"f  c #4A2A5A",
"g  c #53225A",
"h  c #43305A",
"j  c #5F1F64",
"k  c #661D69",
"l  c #6E1C72",
"z  c #751C7C",
"x  c #7A197D",
"c  c #7E177E",
"v  c #59296C",
"b  c #4C396F",
"n  c #5D2D78",
"m  c #553A7C",
"M  c #543475",
"N  c #4D2A60",
"B  c #642473",
"V  c #6B247C",
"C  c #622B7C",
"Z  c #6A2074",
"A  c #70207C",
"S  c #2C415C",
"D  c #324556",
"F  c #35455A",
"G  c #38536C",
"H  c #3E4F71",
"J  c #3F496C",
"K  c #346679",
"L  c #464270",
"P  c #7C1B84",
"I  c #7E1D89",
"U  c #761F83",
"Y  c #593E85",
"T  c #6C2C8C",
"R  c #692A83",
"E  c #75248A",
"W  c #65328A",
"Q  c #6D2F90",
"!  c #772A97",
"~  c #6C3497",
"^  c #73319B",
"/  c #7B35AD",
"(  c #7D39B3",
")  c #3D6D8D",
"_  c #574489",
"`  c #465784",
"'  c #5E4291",
"]  c #59559D",
"[  c #4E4F88",
"{  c #63449A",
"}  c #426189",
"|  c #4B669B",
" . c #545EA0",
".. c #665BB7",
"X. c #7644B6",
"o. c #4576A2",
"O. c #5D67B6",
"+. c #5274B3",
"@. c #785FD4",
"#. c #5D7CCA",
"$. c #6B72D4",
"%. c #7A7DF1",
"&. c #88168A",
"*. c #8B1A95",
"=. c #86229C",
"-. c #9717A1",
";. c #A819B6",
":. c #B212BA",
">. c #A813AC",
",. c #892EB3",
"<. c #9A23B8",
"1. c #8A31BA",
"2. c #8336B9",
"3. c #8F26AC",
"4. c #AE1BC3",
"5. c #B519C9",
"6. c #BB1FD9",
"7. c #BB0FC0",
"8. c #9E29C7",
"9. c #9433CB",
"0. c #983ADA",
"q. c #AB27D5",
"w. c #BA27E6",
"e. c #A935E6",
"r. c #AD3CF6",
"t. c #BC33FE",
"y. c #B339FD",
"u. c #BB3BFF",
"i. c #B536FA",
"p. c #B730EC",
"a. c #C90BCB",
"s. c #D20DD9",
"d. c #C715DA",
"f. c #C113CF",
"g. c #DA14ED",
"h. c #DC1CFE",
"j. c #D61DFA",
"k. c #D613E8",
"l. c #EC0DFB",
"z. c #E20FF2",
"x. c #FE04FF",
"c. c #F30CFE",
"v. c #FC0AFF",
"b. c #F407FA",
"n. c #E513FE",
"m. c #EB14FF",
"M. c #E41CFF",
"N. c #E919FF",
"B. c #F212FF",
"V. c #FC10FF",
"C. c #ED05EE",
"Z. c #CC25FB",
"A. c #C42CFD",
"S. c #CB2BFF",
"D. c #C724F4",
"F. c #D423FE",
"G. c #DB24FF",
"H. c #D429FF",
"J. c #C434FF",
"K. c #C13AFF",
"L. c #CA31FF",
"P. c #E020FF",
"I. c #8542C8",
"U. c #8655DD",
"Y. c #8B49D7",
"T. c #8B5DEB",
"R. c #984EEC",
"E. c #A849FB",
"W. c #B342FF",
"Q. c #B14AFF",
"!. c #A655FF",
"~. c #AB52FF",
"^. c #A25CFF",
"/. c #AC59FF",
"(. c #9D64FF",
"). c #936DFF",
"_. c #996AFF",
"`. c #8A75FF",
"'. c #8B7EFF",
"]. c #827CFA",
"[. c #9173FF",
"{. c #896AF6",
"}. c #A060FF",
"|. c #38839D",
" X c #4488B3",
".X c #4A92C6",
"XX c #5B91DD",
"oX c #5499DA",
"OX c #43B2DC",
"+X c #5D9DEA",
"@X c #788DFB",
"#X c #6B9DFA",
"$X c #749CFF",
"%X c #7A95FF",
"&X c #6D89EC",
"*X c #5BA4EE",
"=X c #5CBCFF",
"-X c #56BAFA",
";X c #49B8E9",
":X c #6EA6FF",
">X c #6AADFF",
",X c #65B3FF",
"<X c #62B9FF",
"1X c #71A4FF",
"2X c #52C3FE",
"3X c #59C4FF",
"4X c #53CBFF",
"5X c #4DD0FE",
"6X c #8684FF",
"7X c #828BFF",
"8X c None",
/* pixels */
"8X8X8X8X8X8X8Xr 3 , - - - - - - - - - - : - - : - - - - - - - - - - - - - : - - - - - - - - - : - - - - - - ; 2 r 8X8X8X8X8X8X8X",
"8X8X8X8X8X8 - - - - - - - - - - - - - - - - - - - - - - - - - - - - - - - - - - - ; - - : - - - - - - - - - : - - - 8 8X8X8X8X8X",
"8X8X8X8X- & - - - - - - - - - - - - - : - - - - - - - - - - - - - - - - - - - - - - - - - - - - - : - - - - - - - - & - S 8X8X8X",
"8X8X8X- - - - - - - - - - - - - - - - - - - - - : - - - - - - - - - - - - - - - - - - - - - - - - - - - - - - - - - - - - u 8X8X",
"8X8X, - - - - - - - - - - - - - - - - - - - - - - - : - - - - - - - - - - - - - - - - - - : - - - - - - - - - - - - - - - , 8X8X",
"8Xr - - - - - - - - - - - - - - - - - - ; - - - - - - - - - - - - - - - - : - - : - - - - - - - - - - : - - - : - - - - - - 1 8X",
"8X< - - - - - - - ; - - - - - - - - : - - - - - - - - - - - - - ; - : - - - - - - - - - - - - - - - - - - - - - - - - - - - , 8X",
"8X- - - - - - - - - - - - - - - - - - - - - - - - - - - - - . K ) . - - - - - - - - - - - - - - - - - - - - - - - - - - - - ; e ",
"8 - - - - - - - - - - - - - - - - - : - - - - - - - - - ; - - OX5XD O - - - - - - - - - : - - - - : - - : - - - ; - - - - : - 1 ",
"= ; - - - - - - ; - - - ; - ; - - - - - - - - : - - - - - & K 5X5X X. - - - - - - - - - - - - - - - - - - - - - - - ; - - - - * ",
"= - : - - - : - - - - - : - - - ; - - - - - - - - - ; - & 9 ;X4X2X-XD & - - - - - - - - - - - - - - - - - - - - - - - - - - - - ",
"= ; - - - - - - - - - ; - - - - - - - - - - - - ; - ; , & ) 4X2X2X3X.X& - - - - - - - - - - - - - - - - - - - - - ; - - - - - * ",
"= ; - - - - - - - - - - - - - - - - - ; - - - - - - - & 8 -X4X.Xo.3X=XG . - - - - - - - - - - - - - - - : - - - - - - - - - ; * ",
"= ; - - - - - - - - - : - - - - - - - - - - - - - - ; .  X3X3XD < *X<XXX- - - - - - - - - - - - - - - - - - - - : - - - - - ; * ",
"= ; - - - - - - - - - - - ; - - - - - - - - - - - - . D -X3X X. X } ,X>X` O - - - - - : - - - : - - : - - - - - - - - - - - ; * ",
"= ; - - - - : - - - - - - - - - - - - - - - - - - - - .X=X,Xu . - , XX:X&X9 - - ; - - - - - - - - - - - - - - - - - - - - : ; * ",
"= ; - - - - - - - - - - - - - - - - - - - : - - - X G =X<Xo.X - ; O L $X$X| . - - : - - - - - - - - - - - - - - - - - - - - ; * ",
"= ; : - - - - - - - - : - - : - - - ; - - - - - - - oX=X+X3 - - ; - - #.%X@Xy & - - - - ; - - - - - - - - - - - - - - - - - ; * ",
": : - - - - - : - - - - - - - - - - - - - - - - X ` ,X,X} X - - ; ; & i @X7X .& - - - - - - - - - - : - - - - - - - - - - - ; * ",
"= : - - - - - - - - - - - - - - - - - - - - - - 2 +X,XXX< - - - - - - . O.6X6Xi & - - - - - - - - - - - : - - - : - - - - : ; * ",
"= : - - - - - : - - - : - - - - - - - - - - - X | >X:XH & - - - - - - & y ].`.@.- - - - - - - - - - - - - - - - - - - - - - ; * ",
"= : - - - - - - - - - - - - - - - - - - - - & r :X:X#.@ - - - - - - - - & ] [.[.b O - - - - - - - - - - - - - - - - - - - - ; * ",
"= - : - - - - - - - - - - - - - - - - - - - & +.1X$XF . - - - - - - - - & 4 {._.U.; - - - - - - - : - - - - - - - - - - - - ; * ",
"= : - - - - - - - - - - : - - : - - - - - & i $X$XO.. - - - - - - - - - - O _ (.(.Y O - - - - - - - - - - : - - - - - : - - ; * ",
"= ; - - - - - - - : - - - - - - - - - - - - #.$X@Xy & ; - : - - - - ; - - - , U.^.R.2 - - - - - - - - - - - - - : - - ; - - ; * ",
"= - - - - - - - - - - - - - - - - - - - & L $X%X] O - ; - - - - - - - - - - & b ~.~.~ & - - - - - - - - - - - - - - - - - - ; * ",
", ; - - - - - - - - - - - - - : - - - - ; $.7X%.3 - - - - - - - - - - - - - - & I.Q.E.w & - - - - - - - - - - - - - - - - - ; * ",
"= ; - - - : - - - - - - - - - - - - - X ` %X7X[ O - - - - - - - - - - - - - - @ f W.i.2.@ - - - : - - : - - : - - - - - - : ; * ",
"= : - - - - - - - - - - - : - - - - & 2 %.6X$.> - - ; ; - - - - - - - - - - - - @ 2.u.i.f @ - - - - - - - - - - - - - - - - ; * ",
"= : - - - - - - - : - - - - - - - - O ] 6X6XL & - - ; ; - - - - - - - - - - - - & q i.u.9.- - - - - - - - - - - - - - - - - ; * ",
"= : - - : - - - - - - - - - - - - & y ].'...  O X O @ # @ - - - - - - @ @ @ @ @ @ o Q t.J.v @ - - - - - - - - : - - : - - - ; * ",
"= : - - - - - - - - - - - - - - - & ..'.`..._ _ ' ' { W m : - - - - - n ^ Q Q T T R ^ t.J.q.; - : - - - - - - - - - - - - - ; * ",
"= : - : - - : - - - - - - - - - O i `.`.).)._._.(.^.^./.Y.- - - - - & 9.K.u.K.J.J.J.J.J.A.S.E # - - - - - - - - - - - - - - - * ",
"= - - - - - - - - : - - - - - - & @.[.)._._.(.(.^.^.~.Q.I.& - - - - & 1.K.J.J.J.L.A.L.S.S.A.p.7 & - - - - - - - - : - - : - ; * ",
"= ; - - - - - - - - - - - - - X b ).).T.{ L m M M m M R.2.# - - - - @ 1.e.n C C C C C ! p.H.H.=.@ : - - - - - - - - - - - - ; * ",
"= ; - - - - - - - - - - - - - : U.).T.w & & & & O O > 0.2.@ - - - - @ 1.e.> o $ @ @ @ + 6 w.H.Z.s @ - - - - - - - - - - - - ; * ",
"= - - - - - - - - - - - - - X _ _.(.Y & - - - # 0 / r.r.n @ - - ; ; & v p.A.3.s # - ; ; # B G.G.<.@ - - - - - - - - - - : - - - ",
"= , - - - - - - - - : - - & 3 T.(.U.- & - - & W r.K.2.4 & - - - - ; ; # 4 ,.H.A.E - & ; - & <.P.G.g @ - - - - - - - - - - - : * ",
", - - - - : - - - - - - : @ { ^.!.b & - & ; 2.W.W.^ & & - - - - - - - - & # =.H.H.<.; - - # s j.M.5.- - - - - - - - - - - - - * ",
"= , - - - - - - - - - - @ 0 ^.!.I.& - - & / K.K.9.- & - - - - - ; - ; ; ; - & 8.G.G.3.& - - O =.N.M.B # - - - - : - - - - - : * ",
"= : - - - - - - - - - - & X.!.!.h & - @ n u.y.u.f & - - - - - - - - - - ; - # f F.F.M.B @ - & 4 k.N.d.; - - : - - - - : - - ; * ",
"= ; : - - - - - - - - & h E.Q.( & - - ; 0.i.t.e.: - - - - - : - - - - - - - - ; 6.h.G.d.- - - # E m.B.&.O - - - - - - - - - ; * ",
"= ; - - - - - - - - - & I.Q.E.q & ; @ N t.u.t.,.@ - - - - - - : - - - - - - - # 3.M.h.M.v @ - - ; d.B.g.5 * - - - - - - - - ; * ",
"= ; - - - : - - - - @ n Q.W.Q $ & & + T K.t.J.R $ @ - & - & & @ - @ * @ - & & $ U N.h.N.*.$ & & o v B.v.-.# - - - - - - - - ; * ",
"= ; - - - - - - ; - , Y.W.e.f q s q w 1.J.t.J.! 6 q a q s s s s s s a s s s s 6 I N.n.n.4.w s s a a a.v.b.a @ - : - - - - - ; * ",
"= ; - - - - - - ; O W y.y.y.r.y.i.i.t.t.t.A.t.A.A.A.A.Z.Z.Z.Z.Z.F.Z.j.F.j.j.h.j.h.n.N.n.n.l.n.m.c.l.l.c.x.:.@ : - - - - - - ; * ",
"= ; - - - - - - @ w y.u.u.u.J.J.J.L.J.J.J.A.A.Z.H.H.H.G.G.G.G.P.P.M.M.M.N.N.B.B.n.n.n.n.c.v.v.v.v.x.x.x.x.x.k # - - - - - - ; * ",
"= ; - - - : - - - q R n C n C C C C n 8.S.Z.S.8.n V V C V V V V V V V A A A A Z 4.c.l.c.f.l z z x x x x c c p - - - - - - : ; * ",
"= ; : - - - - - ; - @ @ & @ @ @ @ @ o E H.A.H.8.O # @ @ @ @ @ @ @ @ # # @ # # + ;.c.l.v.*.% # # # # # # # # * ; - - - ; - - ; * ",
"= ; - - ; - - - - - - - - - - - - - @ f H.Z.Z.D.6 & - - - - - - - - - - - - & 7 z.c.c.x.j @ : - - - - - - - ; ; - - - - - - ; * ",
"= ; - - - - - - - - - - - - - - - - - ; w.F.F.G.R # - - - - - - - - - - - - # z v.c.x.k.> - - - - - - - - - - : - - - - - - ; * ",
"= ; - - - - - - - - - - - - - - - - - @ B G.F.h.d.: - - - - - - - - - - - - , s.x.c.x.P # - - - - - - - - - - - - ; - - - - ; * ",
"= ; - - - - - - - - - - - - - - - - - - - <.M.G.M.=.O ; - - - - - - - - - O *.x.b.x.7.- - - - - - ; - - - - - - - - - - - - ; * ",
"= ; - - - - - - - ; - - - - - - - - - - @ , 6.N.h.M.U # @ - - - - - , @ # c b.x.x.s.4 @ - - - - - - - - - - - - - ; - - - - ; * ",
"= - - - - - - - - - - - - - - - - : - - : @ 4 4.m.n.m.;.s # # # @ + @ w >.x.x.x.a.5 @ : - - - - - - - - - - ; - - - - - - - ; * ",
"e - - - - - - - ; - - - - - - - - - - - - : & - I g.B.V.n.:.P k k &.:.b.x.x.C.&.- - - - - - - - - - - - - - - - - - - - - - - 1 ",
"8X- - - - - - - - - - - - - - : - - : - - - - - # 5 I 5.z.v.v.v.x.x.x.C.a.&.6 # - - - - - - - - - - - - - - - - - - - ; - - - e ",
"8X, - - - - - - - - - - - - - - - - - - - - - - - - O - 5 p l x x l p 6 - # - - - - - - - - - : - - - - - - - - - - - - - - , 8X",
"8Xr - - - - - - - - - - - - - - - - - - - - - : - - - - - @ # # # @ @ - - - - - - - - - - - - - - - - - - - - - - - - - - - 1 8X",
"8X8X; - - - - - : - - - - - - - - - - - - - - - - - - - - - - - - - , - - - - - - - - - - - - - - - - - - - - - - - - - - < 8X8X",
"8X8X8X- - - - - - ; - - - - : - - - : - - - - - - - - - - - - - - - - - - - - - - : - - - - - ; - - - - - - - - - - - - - u 8X8X",
"8X8X8X8X- - - - - - - - - - - - - - - - - - - - - - - - ; - - - - - - - - - - - - - - - - - - - - - - : - - - - - - - - S 8X8X8X",
"8X8X8X8X8X8 - - - - - - - - - - - - - - - : - - - - - - - - - - - - ; - - - - - - - - - : - - - - - - - - - - - - - 8 8X8X8X8X8X",
"8X8X8X8X8X8X8Xr 2 ; - - - - - - - - - - - - - - - - - - - - - - - - - - - - - - - - - - - - - - - - - - - - - 2 r 8X8X8X8X8X8X8X"
};
