/* XPM */
static char * \\SERWEREK3\Robert Documents\desktop 19012021\!!!!!!NOWE POSEGRRR\OMEGA\images\omegacoin64_xpm[] = {
"64 64 202 2",
"  	c None",
". 	c #D40000",
"+ 	c #D50000",
"@ 	c #D30000",
"# 	c #CF0000",
"$ 	c #C10000",
"% 	c #B40000",
"& 	c #AB0000",
"* 	c #A30000",
"= 	c #9E0000",
"- 	c #9D0000",
"; 	c #D20000",
"> 	c #C20000",
", 	c #AA0000",
"' 	c #970000",
") 	c #890000",
"! 	c #8C0000",
"~ 	c #8E0000",
"{ 	c #CB0000",
"] 	c #AC0000",
"^ 	c #910000",
"/ 	c #8B0000",
"( 	c #7C0000",
"_ 	c #6E0000",
": 	c #620000",
"< 	c #570000",
"[ 	c #4F0000",
"} 	c #4B0000",
"| 	c #C90000",
"1 	c #A40000",
"2 	c #8A0000",
"3 	c #8D0000",
"4 	c #810000",
"5 	c #690000",
"6 	c #4A0000",
"7 	c #260000",
"8 	c #130000",
"9 	c #070000",
"0 	c #020000",
"a 	c #010000",
"b 	c #000000",
"c 	c #720000",
"d 	c #490000",
"e 	c #1C0000",
"f 	c #050000",
"g 	c #BE0000",
"h 	c #6F0000",
"i 	c #3B0000",
"j 	c #0D0000",
"k 	c #7B0000",
"l 	c #440000",
"m 	c #CE0000",
"n 	c #9C0000",
"o 	c #610000",
"p 	c #1D0000",
"q 	c #9B0000",
"r 	c #950000",
"s 	c #840000",
"t 	c #480000",
"u 	c #080000",
"v 	c #940000",
"w 	c #CC0000",
"x 	c #7E0000",
"y 	c #360000",
"z 	c #2E0000",
"A 	c #0A0000",
"B 	c #110000",
"C 	c #150000",
"D 	c #120000",
"E 	c #0B0000",
"F 	c #030000",
"G 	c #230000",
"H 	c #630000",
"I 	c #7F0000",
"J 	c #740000",
"K 	c #650000",
"L 	c #4D0000",
"M 	c #270000",
"N 	c #0F0000",
"O 	c #400000",
"P 	c #6D0000",
"Q 	c #860000",
"R 	c #900000",
"S 	c #880000",
"T 	c #710000",
"U 	c #460000",
"V 	c #380000",
"W 	c #760000",
"X 	c #3F0000",
"Y 	c #590000",
"Z 	c #8F0000",
"` 	c #870000",
" .	c #180000",
"..	c #210000",
"+.	c #090000",
"@.	c #6B0000",
"#.	c #5B0000",
"$.	c #540000",
"%.	c #7D0000",
"&.	c #5C0000",
"*.	c #370000",
"=.	c #580000",
"-.	c #250000",
";.	c #410000",
">.	c #700000",
",.	c #660000",
"'.	c #AE0000",
").	c #C30000",
"!.	c #980000",
"~.	c #AF0000",
"{.	c #990000",
"].	c #670000",
"^.	c #780000",
"/.	c #1A0000",
"(.	c #240000",
"_.	c #6A0000",
":.	c #BB0000",
"<.	c #A90000",
"[.	c #D70000",
"}.	c #730000",
"|.	c #190000",
"1.	c #040000",
"2.	c #770000",
"3.	c #D10000",
"4.	c #A10000",
"5.	c #AD0000",
"6.	c #A70000",
"7.	c #D00000",
"8.	c #C50000",
"9.	c #820000",
"0.	c #350000",
"a.	c #790000",
"b.	c #200000",
"c.	c #9A0000",
"d.	c #680000",
"e.	c #D60000",
"f.	c #BC0000",
"g.	c #390000",
"h.	c #B50000",
"i.	c #B30000",
"j.	c #750000",
"k.	c #600000",
"l.	c #B10000",
"m.	c #470000",
"n.	c #3A0000",
"o.	c #C60000",
"p.	c #060000",
"q.	c #A50000",
"r.	c #C00000",
"s.	c #170000",
"t.	c #640000",
"u.	c #0C0000",
"v.	c #1E0000",
"w.	c #BA0000",
"x.	c #B80000",
"y.	c #2B0000",
"z.	c #420000",
"A.	c #C80000",
"B.	c #0E0000",
"C.	c #6C0000",
"D.	c #510000",
"E.	c #5D0000",
"F.	c #B20000",
"G.	c #2C0000",
"H.	c #280000",
"I.	c #A20000",
"J.	c #140000",
"K.	c #100000",
"L.	c #7A0000",
"M.	c #830000",
"N.	c #CD0000",
"O.	c #BD0000",
"P.	c #C70000",
"Q.	c #C40000",
"R.	c #B60000",
"S.	c #9F0000",
"T.	c #340000",
"U.	c #CA0000",
"V.	c #1B0000",
"W.	c #300000",
"X.	c #520000",
"Y.	c #3D0000",
"Z.	c #850000",
"`.	c #560000",
" +	c #220000",
".+	c #BF0000",
"++	c #320000",
"@+	c #2D0000",
"#+	c #A60000",
"$+	c #330000",
"%+	c #290000",
"&+	c #B00000",
"*+	c #B90000",
"=+	c #960000",
"-+	c #500000",
";+	c #160000",
">+	c #930000",
",+	c #1F0000",
"'+	c #5F0000",
")+	c #A80000",
"!+	c #800000",
"~+	c #920000",
"                                                    . + + . . + + . . + + @                                                     ",
"                                            + + . # $ % & * = - - = * & % $ # . + .                                             ",
"                                        + ; > , ' ) ! ~ ~ ~ ~ ~ ~ ~ ~ ~ ~ ! ) ' , > ; +                                         ",
"                                  @ + { ] ^ / ~ ~ ) ( _ : < [ } } [ < : _ ( ) ~ ~ / ^ ] { . ;                                   ",
"                                + | 1 2 ~ 3 4 5 6 7 8 9 0 a b b b b a 0 9 8 7 6 5 4 3 ~ 2 1 | +                                 ",
"                            + # , / ~ / c d e f b b b b b b b b b b b b b b b b f e d c / ~ / , # .                             ",
"                          + g ^ ~ / h i j b b b b b b b b b b b b b b b b b b b b b b j i h / ~ ^ g .                           ",
"                      . ; , / ~ k l j b b b b b b b b b b b b b b b b b b b b b b b b b b j l k ~ / , ; @                       ",
"                    + m n 3 / o p a b b b b b b b b b b b b b b b b b b b b b b b b b b b b a p o / 3 q m +                     ",
"                  @ { r ~ s t u b b b b b b b b b b b b b b b b b b b b b b b b b b b b b b b b u t s ~ v { @                   ",
"                + w v ~ x y 0 b b b b b b b b b b b b b b b b b b b b b b b b b b b b b b b b b b 0 y x ~ v { +                 ",
"              . m r ~ k z a b b b b b b b b b b b b b b b b b b b b b b b b b b b b b b b b b b b b a z k ~ v m @               ",
"              ; q ~ x z b b b b b b b b b b b b b b b b b b b b b b b b b b b b b b b b b b b b b b b b z x ~ q ;               ",
"            + , 3 s y a b b b b b b b b b b b b b b b b 0 A B C C D E F b b b b b b b b b b b b b b b b a y s 3 , .             ",
"          + g / / t 0 b b b b b b b b b b b b b b u G 6 H c k I I ( J K L M E b b b b b b b b b b b b b b 0 t / / g .           ",
"          # ^ ~ o u b b b b b b b b b b b b b N O P Q ~ R R R R R R R R ~ S T U 8 b b b b b b b b b b b b b u o ~ ^ #           ",
"        + , ~ k p b b b b b b b b b b b b f V T ! R R R R R R R R R R R R R R 3 W X u b b b b b b b b b b b b p k ~ , +         ",
"      @ | / / l a b b b b b b b b b b b D Y S R R R R R Z ! S s s ` ! ~ R R R R R 2 o  .b a p ..+.b b b b b b a l / / | ;       ",
"      . 1 ~ h j b b b b b b b b b b b e @.~ R R R Z ) c #.i $.%.x &.*.=.h ` Z R R R ~ c -.j c 3 ;.b b b b b b b j h ~ 1 .       ",
"      { 2 / i b b b b b b b b b b b e >.Z R R R ) ,.o r '.q ).+ + | !.~.{.].o ` R R R Z ^.-./.(.j b b b b b b b b i / 2 {       ",
"    + ] ~ c j b b b b b b b b b b B _.Z R R Z k } } :.<.~.m ; [.[.@ m % 1 g #.U W Z R R Z }.|.b b b b b b b b b b j c ~ ] +     ",
"    ; ^ 3 d b b b b b b b b b b 1.=.~ R R Z T 2.> ).3.] , & %.4.4.4 4.5.6.7.).8.9._.~ R R Z H u b b b b b b b b b b d 3 ^ ;     ",
"  . > / 4 e b b b b b b b b b b 0.` R R Z >.a.m [.+ 6.n _ M F A E F b.,.c.6.+ [.3.Q d.Z R R 2 ;.a b b b b b b b b b e 4 / > @   ",
"  + , ~ 5 f b b b b b b b b b j h R R R k *.6.[.e.f.l A a b b b b b b a +.g.h.e.[.i.*.j.R R R ^.C b b b b b b b b b f 5 ~ , .   ",
"  . ' ~ 6 b b b b b b b b b b i / R R 2 k.l.{ | ] m.0 b b b b b b b b b b a n.1 o.m % K Q R R 3 d b b b b b b b b b b 6 ~ ' .   ",
"  # ) ) 7 b b b b b b b b b p.5 R R Z P q.] r.!.e a b b b b b b b b b b b b b s.) > ~., t.Z R R }.u.b b b b b b b b b 7 ) ) #   ",
". $ ! ( 8 b b b b b b b b b v.s R R 2 #.w.6.'.k.a b b b b b b b b b b b b b b b L l.4.x.: Q R R ) y.b b b b b b b b b 8 ( ! $ @ ",
"+ % ~ _ 9 b b b b b b b b b z.~ R R j.U ).A.c.s.b b b b b b b b b b b b b b b b B.3 8.A.$.C.R R ~ D.b b b b b b b b b 9 _ ~ % . ",
"+ & ~ : 0 b b b b b b b b a E.Z R Z : % + F.G.b b b b b b b b b b b b b b b b b b ..q.+ :.E.~ R R d.1.b b b b b b b b 0 : ~ & . ",
". * ~ < a b b b b b b b b p.P R R 3 ,.3.[.$ H.b b b b b b b b b b b b b b b b b b e h.[.. c / R R W j b b b b b b b b a < ~ * . ",
". = ~ [ b b b b b b b b b j W R R / a.+ [.~.s.b b b b b b b b b b b b b b b b b b j I.[.e.) Q R R x J.b b b b b b b b b [ ~ = . ",
"+ - ~ } b b b b b b b b b K.L.R R S < | @ M.1.b b b b b b b b b b b b b b b b b b a T 3.N.].4 R R 4  .b b b b b b b b b } ~ - + ",
"+ - ~ } b b b b b b b b b K.L.R R S } O.w J 0 b b b b b b b b b b b b b b b b b b a H P.Q.Y 4 R R 4  .b b b b b b b b b } ~ - + ",
". = ~ [ b b b b b b b b b j W R R / a.% 5.q.J.b b b b b b b b b b b b b b b b b b +.{.5.R.S Q R R x J.b b b b b b b b b [ ~ = . ",
". * ~ < a b b b b b b b b p.C.R R 3 C.l.q i.7 b b b b b b b b b b b b b b b b b b /.] S.] a.! R R j.j b b b b b b b b a < ~ * . ",
". & ~ : 0 b b b b b b b F T.E.Z R Z ,.R.U.l.7 b b b b b b b b b b b b b b b b b b V.q.{ w.t.~ R R d.0.9 b b b b b b b 0 : ~ & . ",
". % ~ _ 9 b b b b b b b W.I X.3 R R 2.X.).m 3 N b b b b b b b b b b b b b b b b 9 I { U.E._ R R ~ < x Y.b b b b b b b 9 _ ~ % . ",
"@ $ ! ( 8 b b b b b b N _ Z _.M.R R / E.7.[.w X.b b b b b b b b b b b b b b b b O 8.[.; K Q R R S H ~ 2.s.b b b b b b 8 ( ! $ @ ",
"  # ) ) 7 b b b b b a 6 ! R ` c R R R >.F.[.e.r K.b b b b b b b b b b b b b b E Z.+ [.R.d.Z R R W M.R ~ `.F b b b b b 7 ) ) #   ",
"  . ' ~ 6 b b b b b  +I R R R k / R R 2 _ o.@ .+r ++b b b b b b b b b b b b M 3 w.. | J ` R R 3 a.Z R R s @+b b b b b 6 ~ ' .   ",
"  . , ~ 5 f b b b 9 : Z R R R ~ Q R R R x d 6.> I.#+$+0 b b b b b b b b a %+S.q.O.F.t 2.R R R ` ! R R R Z C.j b b b f 5 ~ , .   ",
"  @ > / 4 e b b b i ) R R R R R Z R R R Z }.Q &+c.*+=+Z.-+;+a a a b B t M.v g = ] >+C.Z R R R Z R R R R R ! m.a b b e 4 / > @   ",
"    ; ^ 3 d b b C W R R R R R R R R R R R Z W / *+A.. e.N.- o s s ,.>+{ + + U.:.v T ~ R R R R R R R R R R R %.,+b b d 3 ^ ;     ",
"    + ] ~ c j 0 $.~ R R R R R R R R R R R R Z x : '+w [.[.. | ] )+A.7.[.[.7.C.o L.Z R R R R R R R R R R R R Z k.p.j c ~ ] +     ",
"      { 2 / i  .c !+!+!+!+!+!+!+!+!+!+!+!+!+!+!+a.X.c 5.| l.Q.& )+Q.5.U.F.k L W !+!+!+!+!+!+!+!+!+!+!+!+!+!+!+2.(.i / 2 {       ",
"      . 1 ~ h N C ;+;+;+;+;+;+;+;+;+;+;+;+;+;+;+;+D F  .$+G d.^ ~+>...$+e F B ;+;+;+;+;+;+;+;+;+;+;+;+;+;+;+;+;+K.h ~ 1 .       ",
"      ; | / / l a b b b b b b b b b b b b b b b b b b b b b a 1.1.a b b b b b b b b b b b b b b b b b b b b b a l / / | ;       ",
"        + , ~ k p b b b b b b b b b b b b b b b b b b b b b b b b b b b b b b b b b b b b b b b b b b b b b b p k ~ , +         ",
"          # ^ ~ o u b b b b b b b b b b b b b b b b b b b b b b b b b b b b b b b b b b b b b b b b b b b b u o ~ ^ #           ",
"          . g / / t 0 b b b b b b b b b b b b b b b b b b b b b b b b b b b b b b b b b b b b b b b b b b 0 t / / g .           ",
"            . , 3 s y a b b b b b b b b b b b b b b b b b b b b b b b b b b b b b b b b b b b b b b b b a y s 3 , .             ",
"              ; q ~ x z b b b b b b b b b b b b b b b b b b b b b b b b b b b b b b b b b b b b b b b b z x ~ q ;               ",
"              @ m v ~ k z a b b b b b b b b b b b b b b b b b b b b b b b b b b b b b b b b b b b b a z k ~ v m @               ",
"                + { v ~ x y 0 b b b b b b b b b b b b b b b b b b b b b b b b b b b b b b b b b b 0 y x ~ v { +                 ",
"                  @ { v ~ s t u b b b b b b b b b b b b b b b b b b b b b b b b b b b b b b b b u t s ~ v { @                   ",
"                    + m q 3 / o p a b b b b b b b b b b b b b b b b b b b b b b b b b b b b a p o / 3 q m +                     ",
"                      @ ; , / ~ k l j b b b b b b b b b b b b b b b b b b b b b b b b b b j l k ~ / , ; @                       ",
"                          . g ^ ~ / h i j b b b b b b b b b b b b b b b b b b b b b b j i h / ~ ^ g .                           ",
"                            . # , / ~ / c d e f b b b b b b b b b b b b b b b b f e d c / ~ / , # .                             ",
"                                + | 1 2 ~ 3 4 5 6 7 8 9 0 a b b b b a 0 9 8 7 6 5 4 3 ~ 2 1 | +                                 ",
"                                  ; . { ] ^ / ~ ~ ) ( _ : < [ } } [ < : _ ( ) ~ ~ / ^ ] { . ;                                   ",
"                                        + ; > , ' ) ! ~ ~ ~ ~ ~ ~ ~ ~ ~ ~ ! ) ' , > ; +                                         ",
"                                            @ . . # $ % & * = - - = * & % $ # . . @                                             ",
"                                                    @ . . . . + + . . . . @                                                     "};
