/* XPM */
static char *_517161339895[] = {
/* columns rows colors chars-per-pixel */
"32 32 167 2 ",
"   c #1C1E10",
".  c #231F1A",
"X  c #0B2604",
"o  c #14240D",
"O  c #192413",
"+  c #162815",
"@  c #1D261B",
"#  c #1B281B",
"$  c #152712",
"%  c #21231C",
"&  c #262626",
"*  c #23262A",
"=  c #2B262C",
"-  c #26282B",
";  c #29292B",
":  c #232B34",
">  c #2C2B33",
",  c #34273A",
"<  c #3B243E",
"1  c #332A3B",
"2  c #342637",
"3  c #2B323C",
"4  c #2A383C",
"5  c #3D2B4B",
"6  c #392842",
"7  c #2F3744",
"8  c #2A3A4F",
"9  c #2A3E44",
"0  c #38344D",
"q  c #591F5B",
"w  c #521F53",
"e  c #45264E",
"r  c #41284D",
"t  c #48224A",
"y  c #4B2452",
"u  c #4B2A5C",
"i  c #462A55",
"p  c #58215E",
"a  c #41355B",
"s  c #403B5F",
"d  c #6A1F6F",
"f  c #671E6C",
"g  c #701A71",
"h  c #4E2C62",
"j  c #4A3667",
"k  c #5E2D78",
"l  c #59337A",
"z  c #513E79",
"x  c #612876",
"c  c #612470",
"v  c #2C4049",
"b  c #324858",
"n  c #3F4064",
"m  c #334D60",
"M  c #3C5877",
"N  c #405478",
"B  c #752285",
"V  c #7F2394",
"C  c #643C93",
"Z  c #7C2FA3",
"A  c #7C34AA",
"S  c #7F38B4",
"D  c #514B86",
"F  c #4A5587",
"G  c #535392",
"H  c #496091",
"J  c #6A40A0",
"K  c #6C4BAD",
"L  c #4D6AA1",
"P  c #5066A1",
"I  c #5965AC",
"U  c #7C58CB",
"Y  c #7E5FD9",
"T  c #6963C1",
"R  c #7E6FE8",
"E  c #727EE6",
"W  c #8E1791",
"Q  c #8A1B93",
"!  c #991CA8",
"~  c #A117AA",
"^  c #A812AB",
"/  c #BA0EBC",
"(  c #B512BB",
")  c #B910BC",
"_  c #8D25AA",
"`  c #872AA8",
"'  c #9321AA",
"]  c #8231AF",
"[  c #8C2FB8",
"{  c #9229B4",
"}  c #8335B5",
"|  c #8C32BC",
" . c #AE1FC9",
".. c #AB1FC5",
"X. c #B717C8",
"o. c #BF11C8",
"O. c #B419C7",
"+. c #8B39C5",
"@. c #9431C7",
"#. c #9631C9",
"$. c #8F3ED1",
"%. c #9736D3",
"&. c #A129C7",
"*. c #A526C9",
"=. c #AA22C9",
"-. c #A72FDB",
";. c #AF24D4",
":. c #B620D7",
">. c #A032D6",
",. c #A230D9",
"<. c #AE2EE3",
"1. c #BA27E6",
"2. c #BF27EB",
"3. c #AD3CEF",
"4. c #BE2BF3",
"5. c #B739FD",
"6. c #BD3EFF",
"7. c #C30FCB",
"8. c #CF0ED7",
"9. c #DC08DD",
"0. c #CC16DC",
"q. c #C719E1",
"w. c #CC18E4",
"e. c #D317E8",
"r. c #DD15F2",
"t. c #DB1DF9",
"y. c #E30AE9",
"u. c #EC08F0",
"i. c #FF07FF",
"p. c #FB0AFF",
"a. c #F505F6",
"s. c #ED12FF",
"d. c #EC19FF",
"f. c #C92DFF",
"g. c #CB25F0",
"h. c #D322F9",
"j. c #D32CFF",
"k. c #C334FF",
"l. c #C239FF",
"z. c #E521FF",
"x. c #875FE6",
"c. c #9555EF",
"v. c #A646F7",
"b. c #A04CF5",
"n. c #A555FF",
"m. c #AB57FF",
"M. c #A05DFF",
"N. c #9B62FF",
"B. c #956BFF",
"V. c #8974FB",
"C. c #9275FF",
"Z. c #3C8CAC",
"A. c #4D85BA",
"S. c #4699C6",
"D. c #5599DA",
"F. c #6E8BED",
"G. c #6499ED",
"H. c #7A83F6",
"J. c #6D95F6",
"K. c #7392FB",
"L. c #5CBDFF",
"P. c #69A7FF",
"I. c #65ABFF",
"U. c #50C6FE",
"Y. c #57C8FF",
"T. c #8083FE",
"R. c None",
/* pixels */
"R.R.R.3 ; & & & & & & & & & & & & & & & & & & & & ; & = 3 R.R.R.",
"R.R.& % & & & & & & & & & = & & & & & & & & & & & & & & & & 8 R.",
"R.& & & & & & & & & & & & & & & % & & & & & & & & & & & & & ; R.",
": & & & & & & & & & & & & & & 4 7 & & & & & ; & & & & & & & & : ",
"; & & & & & & & & & & & & & % Z.S.% & & & & & & & & & & & & & ; ",
"* ; & & & & & ; & & & & & % v U.Y.b . = & & & & & * & & & & & & ",
"* & & & & & & & = & & & & . A.S.A.D.& % & & & & & & & & & & & & ",
"* & & & & & & & & & & = % m L.b 3 P.N % & & & & & & & & & & & & ",
"* & & & & & & & & & & & % D.A.. . P F.= & & & & & & & & & & & * ",
"* & & & & & & & & & & % M I.7 & & > H.G . & & & & & & & & & & * ",
"& = & & & ; & & & & & = G.P % & & O D V.1 & & & & & & & & & & & ",
"& & & & & & & & & & . H J.> & & & & & x.K O & & & & & & & & & * ",
"* & & & & & & & & % > K.F % & & & & % j n.5 @ & & & & & & & & * ",
"- & & & & & & & & % I E & & & & & & & & $.+.@ * & & & & & & & & ",
"* & & * & & & & % 0 T.N   % % & & & % O 5 5.h % & & & & & & & & ",
"* & & & & ; & & % T x.0 a j 1 & & , h u i >.-.& & & & * & & & & ",
"* & & & & & & % s C.B.N.M.m.l % @ k l.k.k.f.j.x @ & & & & & & & ",
"* & & & & & & & x.U a 0 0 S l @ @ k [ 5 5 u &.2.& & & & & & & * ",
"* & & & & & % z N.1 o 2 ] A 2 & & 1 ` { , o , h.Q # & & & & & & ",
"* & & & & & & c.C o 5 3.} % & & & % @ { g.e o B h.6 & & & & * % ",
"* & & & & @ C b.2 % %.5., % & & & & @ 2 h.:.& & e.! # & & & & & ",
"* & & & % 1 v.l X r l.#.O # # # # # # o ..d.t X p s.t @ * & & & ",
"& & & = % S 6.] Z @.k.<.` ` ` ' ' ' ! ' q.s.X.! ! i.7.% & * & & ",
"* & & % 1 } | @.@.-.k.g.&.*.*.*.=... .O.r.s.0.X.o./ / t & * * % ",
"* & & & & & % # $ e j.1.& + % % % @ @ & e.p.y + @ @ & & & & & & ",
"& = & & & & & & & - :.z.c + & & & & $ f i.8.& & & * & & & & & & ",
"* & & & & & & & & % t t.e., $ # @ + < y.a.w @ & & & & & & & & % ",
"- & & & & & & & & & % u 0.d.Q p p W u.9.q @ & & & & & & & * * * ",
"- & & & & & & ; & & & % = c ~ ( ( ^ g = @ & & & & & & & & & & : ",
"R.& & & & & & & & & & & & # @ @ % # # & & & ; & & & & & * & = R.",
"R.R.& & & & & & & & & & & & & & & & & & & & & & & & & & & & 8 R.",
"R.R.R.3 ; & & & & ; & & & & & & & & & & & & & ; & & & & 3 R.R.R."
};
