/* XPM */
static char *_517161316552[] = {
/* columns rows colors chars-per-pixel */
"16 16 138 2 ",
"   c #231C19",
".  c #231D19",
"X  c #231F1B",
"o  c #1F2319",
"O  c #1B2719",
"+  c #1E251A",
"@  c #1D261B",
"#  c #1D271C",
"$  c #1D271D",
"%  c #1E261C",
"&  c #1C281B",
"*  c #1D281D",
"=  c #21221B",
"-  c #21221C",
";  c #22221C",
":  c #22221E",
">  c #24211E",
",  c #24221E",
"<  c #24231F",
"1  c #20251C",
"2  c #21241D",
"3  c #22251F",
"4  c #242220",
"5  c #252321",
"6  c #262320",
"7  c #212620",
"8  c #212720",
"9  c #212723",
"0  c #232722",
"q  c #222723",
"w  c #242522",
"e  c #242523",
"r  c #262422",
"t  c #242623",
"y  c #262424",
"u  c #262524",
"i  c #262525",
"p  c #242624",
"a  c #252624",
"s  c #252625",
"d  c #262625",
"f  c #242526",
"g  c #242527",
"h  c #242627",
"j  c gray15",
"k  c #242628",
"l  c #272628",
"z  c #282628",
"x  c #282629",
"c  c #2B252B",
"v  c #29262B",
"b  c #2A272D",
"n  c #262A2B",
"m  c #262B2C",
"M  c #2A282D",
"N  c #242930",
"B  c #262D36",
"V  c #302937",
"C  c #332739",
"Z  c #352638",
"A  c #3C233E",
"S  c #332C3E",
"D  c #29323D",
"F  c #29333F",
"G  c #2C383F",
"H  c #3F2443",
"J  c #3C2744",
"K  c #3C2846",
"L  c #3C2948",
"P  c #3A2D48",
"I  c #3D2D4C",
"U  c #313747",
"Y  c #303947",
"T  c #35384E",
"R  c #343F52",
"E  c #432245",
"W  c #432346",
"Q  c #462147",
"!  c #40284B",
"~  c #4C2250",
"^  c #482551",
"/  c #4A285B",
"(  c #502051",
")  c #512051",
"_  c #50265D",
"`  c #41365C",
"'  c #6A1C6B",
"]  c #681E6B",
"[  c #751A78",
"{  c #78197A",
"}  c #542E6F",
"|  c #592B6F",
" . c #523B79",
".. c #553D7F",
"X. c #6B2379",
"o. c #692478",
"O. c #344659",
"+. c #414065",
"@. c #632F84",
"#. c #6B2883",
"$. c #722383",
"%. c #7C2C9A",
"&. c #733CA9",
"*. c #783DB1",
"=. c #3A748F",
"-. c #3D7A9B",
";. c #634C9B",
":. c #466F9C",
">. c #604FA1",
",. c #6D56BA",
"<. c #695FBB",
"1. c #5661A4",
"2. c #5463A4",
"3. c #506DA7",
"4. c #4B7BB0",
"5. c #7F45C0",
"6. c #8F1FA1",
"7. c #A01AAF",
"8. c #AA17B7",
"9. c #A41CB8",
"0. c #B310B7",
"q. c #B811BA",
"w. c #8925A3",
"e. c #8D22A4",
"r. c #8328A1",
"t. c #8B2EB6",
"y. c #8930B5",
"u. c #8D34BD",
"i. c #B81FD8",
"p. c #9C29C4",
"a. c #9031C1",
"s. c #9C34D7",
"d. c #BF25EA",
"f. c #B92EF2",
"g. c #DE0DEA",
"h. c #D915F1",
"j. c #4584AF",
"k. c None",
/* pixels */
"k.F j j j j j 6 y j j j j j F k.",
"B 6 j j j j j n n j j j j j r N ",
"j j j j j j   =.-.  j j j j j j ",
"k j j j j - Y j.4.Y 4 j j j j f ",
"k j j j j X :.O.T 1.- j j j j f ",
"k j j j - R 3.6 = >.` % j j j f ",
"k j j j 6 2.U - - J &.w j j j f ",
"k j j - +.<.P M n K y.| + j j f ",
"f j j j ,.;.5.I L a.%.p.l f j f ",
"k j o  .../ @.j x #._ o.$.O j f ",
"k w V *.L s.C j j Z i.H 7.A 0 f ",
"k % } u.t.f.r.w.e.6.h.8.q.[ * f ",
"k j x l K d.^ w 9 ~ g.E j x j j ",
"k j j j + o.9.~ ( q.[ & j j j f ",
"B 6 j j j + E ] ' Q + j j j r N ",
"k.F j j j j 9 $ $ 3 j j j j F k."
};
