/* XPM */
static char * \\SERWEREK3\Robert Documents\desktop 19012021\!!!!!!NOWE POSEGRRR\OMEGA\images\omegacoin32_xpm[] = {
"32 32 140 2",
"  	c None",
". 	c #CE0000",
"+ 	c #C30000",
"@ 	c #BD0000",
"# 	c #BB0000",
"$ 	c #CD0000",
"% 	c #B90000",
"& 	c #A30000",
"* 	c #8F0000",
"= 	c #820000",
"- 	c #790000",
"; 	c #730000",
"> 	c #CC0000",
", 	c #B50000",
"' 	c #940000",
") 	c #580000",
"! 	c #320000",
"~ 	c #190000",
"{ 	c #0F0000",
"] 	c #0A0000",
"^ 	c #C50000",
"/ 	c #9D0000",
"( 	c #7A0000",
"_ 	c #460000",
": 	c #130000",
"< 	c #010000",
"[ 	c #000000",
"} 	c #C40000",
"| 	c #BE0000",
"1 	c #900000",
"2 	c #5F0000",
"3 	c #1A0000",
"4 	c #8C0000",
"5 	c #4E0000",
"6 	c #080000",
"7 	c #050000",
"8 	c #060000",
"9 	c #140000",
"0 	c #1C0000",
"a 	c #150000",
"b 	c #070000",
"c 	c #9E0000",
"d 	c #450000",
"e 	c #6B0000",
"f 	c #7D0000",
"g 	c #850000",
"h 	c #7E0000",
"i 	c #6C0000",
"j 	c #480000",
"k 	c #020000",
"l 	c #360000",
"m 	c #750000",
"n 	c #8D0000",
"o 	c #8A0000",
"p 	c #770000",
"q 	c #3A0000",
"r 	c #200000",
"s 	c #430000",
"t 	c #840000",
"u 	c #870000",
"v 	c #A50000",
"w 	c #A80000",
"x 	c #860000",
"y 	c #830000",
"z 	c #4A0000",
"A 	c #590000",
"B 	c #240000",
"C 	c #350000",
"D 	c #9A0000",
"E 	c #B10000",
"F 	c #B30000",
"G 	c #9C0000",
"H 	c #8E0000",
"I 	c #3B0000",
"J 	c #120000",
"K 	c #740000",
"L 	c #780000",
"M 	c #B40000",
"N 	c #CB0000",
"O 	c #7F0000",
"P 	c #1E0000",
"Q 	c #1F0000",
"R 	c #410000",
"S 	c #C90000",
"T 	c #760000",
"U 	c #160000",
"V 	c #420000",
"W 	c #B80000",
"X 	c #6A0000",
"Y 	c #0B0000",
"Z 	c #640000",
"` 	c #B70000",
" .	c #9F0000",
"..	c #490000",
"+.	c #690000",
"@.	c #810000",
"#.	c #7B0000",
"$.	c #B60000",
"%.	c #6E0000",
"&.	c #2F0000",
"*.	c #C00000",
"=.	c #A20000",
"-.	c #A70000",
";.	c #220000",
">.	c #1D0000",
",.	c #AD0000",
"'.	c #980000",
").	c #A60000",
"!.	c #A00000",
"~.	c #890000",
"{.	c #B00000",
"].	c #2C0000",
"^.	c #960000",
"/.	c #270000",
"(.	c #6F0000",
"_.	c #880000",
":.	c #800000",
"<.	c #CA0000",
"[.	c #710000",
"}.	c #170000",
"|.	c #500000",
"1.	c #5A0000",
"2.	c #540000",
"3.	c #BA0000",
"4.	c #560000",
"5.	c #030000",
"6.	c #280000",
"7.	c #7C0000",
"8.	c #AA0000",
"9.	c #2D0000",
"0.	c #180000",
"a.	c #670000",
"b.	c #9B0000",
"c.	c #BF0000",
"d.	c #570000",
"e.	c #5E0000",
"f.	c #4D0000",
"g.	c #4B0000",
"h.	c #1B0000",
"i.	c #040000",
"                        . + @ # # @ + $                         ",
"                  $ % & * = - ; ; - = * & % >                   ",
"              . , ' - ) ! ~ { ] ] { ~ ! ) - ' , .               ",
"            ^ / ( _ : < [ [ [ [ [ [ [ [ < : _ ( / }             ",
"          | 1 2 3 < [ [ [ [ [ [ [ [ [ [ [ [ < 3 2 1 |           ",
"        | 4 5 6 [ [ [ [ [ [ [ [ [ [ [ [ [ [ [ [ 6 5 4 |         ",
"      ^ 1 5 7 [ [ [ [ [ [ 8 9 0 0 a b [ [ [ [ [ [ 7 5 1 }       ",
"    . c 2 6 [ [ [ [ [ : d e f g g h i j a [ [ [ [ [ 6 2 / .     ",
"    , ( 3 [ [ [ [ k l m n * n o o n * n p q 7 r 6 [ [ 3 ( ,     ",
"  > ' _ < [ [ [ k s t * t = u v w x y y * x z A B [ [ < _ ' >   ",
"  % - : [ [ [ [ C t * = D , E , , E F G = H x I < [ [ [ : - %   ",
"  & ) < [ [ [ J K * L M N O d P Q R f S % T * L U [ [ [ < ) &   ",
". * ! [ [ [ [ V n u / W X Y [ [ [ [ 6 Z `  .g n ..[ [ [ [ ! * $ ",
"+ = ~ [ [ [ 7 +.* m ` @.Y [ [ [ [ [ [ b #.$.m * %.6 [ [ [ ~ = + ",
"@ - { [ [ [ J #.H c } l [ [ [ [ [ [ [ [ &.*.=.n O U [ [ [ { - @ ",
"# ; ] [ [ [ ~ y 4 -.W ;.[ [ [ [ [ [ [ [ >.F ,.o x >.[ [ [ ] ; # ",
"# ; ] [ [ [ ~ y 4 '.).Q [ [ [ [ [ [ [ [ 3 !.c ~.x >.[ [ [ ] ; # ",
"@ - { [ [ [ B #.H ' {.! [ [ [ [ [ [ [ [ ].,.^.n O /.[ [ [ { - @ ",
"+ = ~ [ [ : (.L * L S _.6 [ [ [ [ [ [ 7 :.<.- * - [.}.[ [ ~ = + ",
"$ * ! [ k |.n y H _.F | 1.8 [ [ [ [ 7 2.3.$.x H = H 4.5.[ ! * $ ",
"  & ) < 6.= 1 * H 1 7.-.).[.q U U l (.-.8.( * H * 1 t 9.< ) &   ",
"  % - 0.a.* * * * * H x b.$ + G b.c.. c u H * * * * * i 3 - %   ",
"  > ' ..d.2 2 2 2 2 2 e.f.[.* G G H m g.e.2 2 2 2 2 2 A z ' >   ",
"    , ( h.< < < < < < < < < i.0.~ i.< < < < < < < < < h.( ,     ",
"    . / 2 6 [ [ [ [ [ [ [ [ [ [ [ [ [ [ [ [ [ [ [ [ 6 2 / .     ",
"      } 1 5 7 [ [ [ [ [ [ [ [ [ [ [ [ [ [ [ [ [ [ 7 5 1 }       ",
"        | 4 5 6 [ [ [ [ [ [ [ [ [ [ [ [ [ [ [ [ 6 5 4 |         ",
"          | 1 2 3 < [ [ [ [ [ [ [ [ [ [ [ [ < 3 2 1 |           ",
"            } / ( _ : < [ [ [ [ [ [ [ [ < : _ ( / }             ",
"              . , ' - ) ! ~ { ] ] { ~ ! ) - ' , .               ",
"                  > % & * = - ; ; - = * & % >                   ",
"                        $ + @ # # @ + $                         "};
